<svg width="120" height="120" viewBox="0 0 120 120" fill="none" xmlns="http://www.w3.org/2000/svg">
<g clip-path="url(#clip0_33_55)">
<path d="M40.7555 47.6971L30.4006 37.3422L27.6639 40.079L38.4832 50.8984C36.5032 54.1713 35.2452 57.9184 34.9374 61.9364H30.9677V65.8074H34.9374C35.4697 72.7364 38.8026 78.8893 43.8252 83.1164L33.4723 93.4713L36.209 96.2081L47.0265 85.3887C50.2994 87.3687 54.0464 88.6268 58.0664 88.9345V96.7751H61.9374V88.9345C65.9555 88.6268 69.7045 87.3687 72.9774 85.3887L83.7948 96.2081L86.5316 93.4713L76.1787 83.1164C81.2013 78.8874 84.5342 72.7364 85.0665 65.8074H92.9032V61.9364H85.0626C84.7548 57.9164 83.4968 54.1693 81.5168 50.8964L92.3361 40.079L89.5993 37.3422L79.2445 47.6951C75.0155 42.6726 68.8645 39.3397 61.9355 38.8074V34.7235C70.6316 33.7558 77.4193 26.3681 77.4193 17.4184C77.4193 7.81451 69.6058 -0.000976562 60 -0.000976562C50.3942 -0.000976562 42.5806 7.81451 42.5806 17.4184C42.5806 26.3681 49.3684 33.7577 58.0645 34.7235V38.8074C51.1355 39.3397 44.9826 42.6745 40.7555 47.6971ZM81.2903 63.8719C81.2903 65.8868 80.9903 67.83 80.4658 69.6784H69.18C69.5052 67.7603 69.6774 65.8171 69.6774 63.8719C69.6774 61.9268 69.5052 59.9835 69.18 58.0655H80.4658C80.9903 59.9139 81.2903 61.8571 81.2903 63.8719ZM65.8064 63.8719C65.8064 65.821 65.5703 67.7622 65.2026 69.6784H54.7974C54.4297 67.7622 54.1935 65.821 54.1935 63.8719C54.1935 61.9229 54.4297 59.9816 54.7974 58.0655H65.2026C65.5703 59.9816 65.8064 61.9229 65.8064 63.8719ZM60 82.7681L57.4529 77.6719C56.789 76.3461 56.2587 74.9584 55.7942 73.5493H64.2077C63.7432 74.9584 63.2129 76.3461 62.549 77.6719L60 82.7681ZM38.7097 63.8719C38.7097 61.8571 39.0097 59.9139 39.5342 58.0655H50.82C50.4948 59.9835 50.3226 61.9268 50.3226 63.8719C50.3226 65.8171 50.4948 67.7603 50.82 69.6784H39.5342C39.0097 67.83 38.7097 65.8868 38.7097 63.8719ZM55.7942 54.1945C56.2587 52.7855 56.789 51.3977 57.4529 50.0719L60 44.9758L62.5471 50.0719C63.211 51.3977 63.7413 52.7855 64.2058 54.1945H55.7942ZM56.729 42.8603L53.9884 48.3397C53.0516 50.2151 52.2929 52.1777 51.7084 54.1945H41.0594C44.1135 48.241 49.8832 43.9229 56.729 42.8603ZM41.0594 73.5493H51.7084C52.2929 75.5642 53.0516 77.5287 53.9884 79.4042L56.729 84.8835C49.8832 83.821 44.1135 79.5029 41.0594 73.5493ZM63.271 84.8835L66.0116 79.4042C66.9484 77.5287 67.7071 75.5661 68.2916 73.5493H78.9406C75.8865 79.5029 70.1168 83.821 63.271 84.8835ZM78.9406 54.1945H68.2916C67.7071 52.1797 66.9484 50.2151 66.0116 48.3397L63.271 42.8603C70.1168 43.9229 75.8865 48.241 78.9406 54.1945ZM46.4516 17.4203C46.4516 9.94935 52.531 3.87193 60 3.87193C67.469 3.87193 73.5484 9.94935 73.5484 17.4203C73.5484 24.8913 67.469 30.9687 60 30.9687C52.531 30.9687 46.4516 24.8913 46.4516 17.4203ZM69.6774 17.4203C69.6774 15.4887 68.6032 13.7506 66.8768 12.8874L57.6561 8.27709C56.9574 7.9287 56.1716 7.74289 55.3897 7.74289C52.5968 7.74289 50.3226 10.0152 50.3226 12.81V22.0306C50.3226 24.8255 52.5968 27.0977 55.3897 27.0977C56.1716 27.0977 56.9574 26.9119 57.6561 26.5635L66.8768 21.9532C68.6032 21.09 69.6774 19.3519 69.6774 17.4203ZM65.1445 18.4906L55.9239 23.101C55.1768 23.4803 54.1935 22.8745 54.1935 22.0306V12.81C54.1935 12.15 54.7297 11.6139 55.3897 11.6139C55.5755 11.6139 55.7593 11.6564 55.9239 11.7397L65.1445 16.35C65.5529 16.5552 65.8064 16.9635 65.8064 17.4203C65.8064 17.8771 65.5529 18.2855 65.1445 18.4906ZM58.0645 116.13H61.9355V120.001H58.0645V116.13ZM60 112.259C57.0135 112.259 54.24 113.744 52.5832 116.229L51.9329 117.204L48.7123 115.058L49.3626 114.082C51.7394 110.517 55.7168 108.388 60 108.388C64.2832 108.388 68.2606 110.517 70.6374 114.08L71.2877 115.056L68.0671 117.202L67.4168 116.227C65.76 113.744 62.9865 112.259 60 112.259ZM71.849 109.427C68.6826 106.259 64.4748 104.517 60 104.517C55.5232 104.517 51.3174 106.259 48.1529 109.425L47.8181 109.758L45.0852 107.018L45.4181 106.687C49.3123 102.791 54.4897 100.646 60 100.646C65.5103 100.646 70.6877 102.791 74.5839 106.689L74.9148 107.018L72.1819 109.758L71.849 109.427ZM113.959 71.6139C112.368 71.6139 110.812 72.2584 109.688 73.3829L109.645 73.4255C108.912 73.1506 108.387 72.4422 108.387 71.6139V70.8745L108.544 70.7952C110.835 69.6513 112.258 67.3481 112.258 64.7855C112.258 61.081 109.243 58.0655 105.538 58.0655C100.705 58.0655 96.7742 61.9964 96.7742 66.8293V69.4442C96.7742 78.1113 103.827 85.1622 112.492 85.1622C116.632 85.1622 120 81.7945 120 77.6545C120 74.3235 117.29 71.6139 113.959 71.6139ZM112.492 81.2913C105.96 81.2913 100.645 75.9764 100.645 69.4442V66.8293C100.645 64.1313 102.84 61.9364 105.538 61.9364C107.11 61.9364 108.387 63.2158 108.387 64.7855C108.387 65.8713 107.783 66.8468 106.814 67.3326L104.516 68.4822V71.6139C104.516 74.8151 107.121 77.4203 110.323 77.4203H111.124L112.425 76.1197C112.829 75.7171 113.388 75.4848 113.959 75.4848C115.155 75.4848 116.129 76.4584 116.129 77.6545C116.129 79.6597 114.497 81.2913 112.492 81.2913ZM108.296 105.409L109.688 104.018C111.345 102.361 112.258 100.158 112.258 97.8126C112.258 92.9719 108.321 89.0332 103.481 89.0332H97.8097C92.969 89.0332 89.0323 92.9719 89.0323 97.8126C89.0323 100.158 89.9458 102.363 91.6026 104.022L92.9942 105.411C93.2071 107.242 94.0335 108.88 95.2993 110.093C93.4916 111.353 92.1194 113.225 91.5542 115.487L90.4239 120.001H110.868L109.738 115.487C109.173 113.225 107.803 111.353 105.993 110.093C107.257 108.88 108.083 107.24 108.296 105.409ZM97.8097 92.9042H103.481C106.185 92.9042 108.387 95.1068 108.387 97.8126C108.387 98.7068 108.134 99.5545 107.688 100.304C107.077 99.3164 106.107 98.5655 104.917 98.2674L99.5884 96.9358C99.1587 96.8293 98.7232 96.7751 98.2858 96.7751C96.1161 96.7751 94.2503 98.0739 93.4006 99.9281C93.0871 99.2739 92.9032 98.5597 92.9032 97.8126C92.9032 95.1068 95.1058 92.9042 97.8097 92.9042ZM105.9 116.13H95.3903C96.1006 113.835 98.22 112.259 100.645 112.259C103.07 112.259 105.19 113.835 105.9 116.13ZM96.7742 104.517V102.158C96.7742 101.324 97.4535 100.646 98.2858 100.646C98.4077 100.646 98.5316 100.662 98.6516 100.691L103.978 102.022C104.295 102.102 104.516 102.384 104.516 102.711V104.517C104.516 106.652 102.78 108.388 100.645 108.388C98.5103 108.388 96.7742 106.652 96.7742 104.517ZM23.2258 96.7751C20.3245 96.7751 17.6961 98.2713 16.2155 100.722C11.4445 101.316 7.74194 105.396 7.74194 110.324C7.74194 113.525 10.3471 116.13 13.5484 116.13H32.9032C36.1045 116.13 38.7097 113.525 38.7097 110.324C38.7097 105.396 35.0071 101.316 30.2361 100.722C28.7555 98.2713 26.1271 96.7751 23.2258 96.7751ZM34.8387 110.324C34.8387 111.39 33.9716 112.259 32.9032 112.259H13.5484C12.48 112.259 11.6129 111.39 11.6129 110.324C11.6129 107.122 14.2181 104.517 17.4194 104.517H18.6155L19.3548 103.038C20.0923 101.564 21.5748 100.646 23.2258 100.646C24.8768 100.646 26.3594 101.564 27.0968 103.038L27.8361 104.517H29.0323C32.2335 104.517 34.8387 107.122 34.8387 110.324ZM13.5484 81.8758L24.0348 73.1371C25.98 71.5151 27.0968 69.1306 27.0968 66.5971C27.0968 64.3248 26.2123 62.1881 24.5942 60.5681C22.98 58.9539 20.8355 58.0655 18.5535 58.0655H18.2206C16.5368 58.0655 14.9265 58.5493 13.5484 59.4532C12.1703 58.5493 10.56 58.0655 8.87613 58.0655H8.54323C6.26129 58.0655 4.11677 58.9539 2.49097 60.5777C0.884516 62.1861 0 64.3248 0 66.5971C0 69.1326 1.11677 71.5151 3.06194 73.1371L13.5484 81.8758ZM5.23935 63.3068C6.12194 62.4222 7.29677 61.9364 8.54323 61.9364H8.87613C10.1245 61.9364 11.2974 62.4222 12.18 63.3068L13.5484 64.6732L14.9168 63.3068C15.7994 62.4222 16.9742 61.9364 18.2206 61.9364H18.5535C19.8019 61.9364 20.9748 62.4222 21.8652 63.3126C22.7419 64.1913 23.2258 65.3584 23.2258 66.5971C23.2258 67.979 22.6181 69.2797 21.5555 70.1642L13.5484 76.8358L5.54129 70.1642C4.47871 69.2797 3.87097 67.979 3.87097 66.5971C3.87097 65.3584 4.35484 64.1913 5.23935 63.3068ZM7.74194 19.3558H11.6129V23.2268H7.74194V19.3558ZM19.3548 23.2268H15.4839V19.3558H19.3548V23.2268ZM27.0968 23.2268H23.2258V19.3558H27.0968V23.2268ZM3.87097 30.9687H12.0387L13.1381 35.3661C13.6297 37.3364 15.391 38.7106 17.4194 38.7106C19.4477 38.7106 21.209 37.3364 21.7006 35.3661L22.8 30.9687H30.9677C33.1026 30.9687 34.8387 29.2326 34.8387 27.0977V15.4848C34.8387 13.35 33.1026 11.6139 30.9677 11.6139H3.87097C1.73613 11.6139 0 13.35 0 15.4848V27.0977C0 29.2326 1.73613 30.9687 3.87097 30.9687ZM3.87097 15.4848H30.9677V27.0977H19.7806L17.9477 34.4274C17.8258 34.9132 17.0148 34.9132 16.8929 34.4274L15.0581 27.0977H3.87097V15.4848ZM104.516 11.6139H89.0323C86.8974 11.6139 85.1613 13.35 85.1613 15.4848V30.9687C85.1613 33.1035 86.8974 34.8397 89.0323 34.8397H104.516C106.401 34.8397 107.973 33.4829 108.314 31.6945L120 35.5887V10.8648L108.314 14.759C107.973 12.9706 106.401 11.6139 104.516 11.6139ZM89.0323 30.9687V15.4848H104.516L104.518 30.9687H89.0323ZM116.129 30.2197L108.387 27.6377V18.8158L116.129 16.2339V30.2197Z" fill="url(#paint0_linear_33_55)"/>
</g>
<defs>
<linearGradient id="paint0_linear_33_55" x1="60" y1="120.001" x2="60" y2="0.000954628" gradientUnits="userSpaceOnUse">
<stop stop-color="#ABED8A"/>
<stop offset="1" stop-color="#5EC7AE"/>
</linearGradient>
<clipPath id="clip0_33_55">
<rect width="120" height="120" fill="white" transform="translate(0 0.000976562)"/>
</clipPath>
</defs>
</svg>
