<svg width="47" height="47" viewBox="0 0 47 47" fill="none" xmlns="http://www.w3.org/2000/svg">
<g clip-path="url(#clip0_76_34)">
<path d="M3.71041 33.3094C3.58161 33.3094 3.45588 33.2442 3.38381 33.1277C3.27494 32.9513 3.32631 32.7198 3.49958 32.6056L9.37071 28.7523L2.40631 32.7727C2.22691 32.8777 1.99768 32.8195 1.88881 32.6424C1.77994 32.4668 1.83054 32.236 2.00304 32.121L10.2915 26.6325L1.88498 31.4855C1.70558 31.5905 1.47634 31.5315 1.36748 31.3551C1.25861 31.1788 1.30921 30.948 1.48248 30.8338L10.1305 25.129L2.25988 29.6731C2.07894 29.7781 1.84971 29.7191 1.74161 29.542C1.63274 29.3656 1.68488 29.1341 1.85814 29.0199L9.46194 24.0557L2.51671 28.0646C2.33501 28.1696 2.10424 28.1106 1.99691 27.9304C1.88881 27.7526 1.94401 27.5195 2.12111 27.4083L4.28771 26.0444L2.64321 26.9936C2.46381 27.1001 2.23304 27.0403 2.12418 26.8617C2.01531 26.6846 2.06898 26.4523 2.24378 26.3396L8.24294 22.4702L2.75131 25.6404C2.57191 25.747 2.34114 25.6872 2.23228 25.5085C2.12341 25.3314 2.17708 25.0991 2.35188 24.9864L8.05204 21.3126L2.79194 24.3493C2.61254 24.4544 2.38254 24.3953 2.27368 24.219C2.16481 24.0427 2.21618 23.8119 2.38944 23.6969L9.96028 18.7159L2.74134 22.8835C2.56348 22.9893 2.33348 22.931 2.22384 22.7539C2.11421 22.5783 2.16481 22.3468 2.33731 22.2318L10.1435 17.0537L2.60181 21.4076C2.42241 21.5119 2.19394 21.4544 2.08508 21.2788C1.97621 21.1033 2.02528 20.8733 2.19701 20.7575L10.3091 15.305L2.45461 19.839C2.27444 19.9448 2.04368 19.8843 1.93558 19.7072C1.82671 19.5293 1.88038 19.2978 2.05518 19.1843L5.54888 16.9364L2.35418 18.7803C2.17478 18.8868 1.94478 18.827 1.83514 18.6484C1.72628 18.4713 1.77994 18.239 1.95474 18.1263L4.97311 16.1813L2.19778 17.7828C2.01991 17.8879 1.78991 17.8304 1.68028 17.6533C1.57141 17.4777 1.62124 17.2469 1.79298 17.1319L7.09064 13.5976L1.96471 16.5562C1.78684 16.6612 1.55991 16.6037 1.44951 16.4297C1.33911 16.2556 1.38588 16.0272 1.55454 15.9091L7.60891 11.7085L1.87884 15.0159C1.70251 15.1194 1.47634 15.0635 1.36518 14.8925C1.25401 14.72 1.29771 14.4923 1.46331 14.3727L6.74181 10.5831L2.01454 13.3124C1.83744 13.4151 1.61204 13.3599 1.50164 13.1897C1.39048 13.018 1.43264 12.7903 1.59748 12.6707L4.84124 10.314L2.43161 11.7047C2.26064 11.8044 2.04674 11.7576 1.93098 11.5997C1.81521 11.4417 1.83668 11.2225 1.98081 11.0898L4.17654 9.0781L4.15584 9.09036C3.97184 9.19616 3.73801 9.13406 3.63221 8.95006C3.52641 8.76683 3.58928 8.53223 3.77251 8.42643L6.82614 6.6631C6.99711 6.5642 7.21101 6.6102 7.32678 6.76813C7.44254 6.92606 7.42108 7.14533 7.27695 7.27797L5.08044 9.29047L10.7944 5.9915C10.97 5.888 11.1961 5.94397 11.3073 6.11417C11.4185 6.2859 11.3763 6.5136 11.2115 6.6332L7.97001 8.9884L13.053 6.0536C13.2293 5.9501 13.4563 6.00607 13.5667 6.17703C13.6778 6.34953 13.6341 6.57723 13.4685 6.69683L8.18544 10.4903L15.2257 6.4262C15.4044 6.3227 15.6313 6.37943 15.7409 6.5527C15.8513 6.72673 15.8046 6.9552 15.6359 7.07327L9.58385 11.2723L16.9461 7.0219C17.1255 6.9184 17.3548 6.97513 17.4636 7.15147C17.5725 7.32703 17.5227 7.5578 17.3509 7.6728L12.0502 11.2094L18.1498 7.68813C18.3307 7.5831 18.5607 7.64213 18.6688 7.82C18.7777 7.9971 18.724 8.2294 18.5492 8.3421L15.5447 10.2787L18.9556 8.3099C19.1365 8.20563 19.3665 8.2639 19.4746 8.44176C19.5835 8.61963 19.5298 8.85117 19.355 8.96463L15.8536 11.2171L19.6494 9.02596C19.8273 8.92017 20.0565 8.9792 20.1661 9.15477C20.2758 9.33033 20.2259 9.56033 20.0542 9.6761L11.9406 15.1302L20.4444 10.2212C20.6238 10.1169 20.8531 10.1744 20.9619 10.3508C21.0716 10.5263 21.021 10.7579 20.8485 10.8729L13.0438 16.0502L20.9558 11.4824C21.1352 11.3781 21.3644 11.4364 21.4741 11.6127C21.5829 11.789 21.5316 12.0206 21.3583 12.1348L13.7882 17.1151L21.2479 12.8087C21.4288 12.7037 21.6588 12.7627 21.7669 12.9406C21.8758 13.1177 21.8221 13.35 21.6473 13.4627L15.9495 17.135L21.3491 14.0177C21.53 13.9127 21.7593 13.9717 21.8681 14.1496C21.977 14.3275 21.9233 14.559 21.7485 14.6717L15.7532 18.5388L21.3284 15.3203C21.5093 15.2145 21.7409 15.2735 21.8482 15.4545C21.9563 15.6323 21.9011 15.8654 21.724 15.9766L19.5497 17.3451L21.1996 16.3929C21.379 16.2871 21.609 16.3461 21.7179 16.524C21.8267 16.7003 21.7746 16.9318 21.6013 17.0461L13.9952 22.0118L20.8922 18.0305C21.0716 17.9262 21.3016 17.9845 21.4097 18.1608C21.5185 18.3364 21.4679 18.5679 21.2947 18.6821L12.6467 24.3869L20.7327 19.7187C20.9113 19.6144 21.1413 19.6719 21.2502 19.849C21.3591 20.0246 21.3085 20.2553 21.136 20.3703L12.8468 25.8589L20.574 21.3984C20.7526 21.2926 20.9834 21.3524 21.0923 21.5288C21.2011 21.7051 21.1498 21.9366 20.9765 22.0509L15.1038 25.9057L20.4559 22.816C20.6346 22.711 20.8623 22.7685 20.9727 22.944C21.0823 23.1196 21.034 23.3488 20.8623 23.4654L15.2924 27.2358L20.4582 24.2535C20.6376 24.1492 20.8669 24.2067 20.975 24.3831C21.0846 24.5586 21.0348 24.7886 20.863 24.9044L18.054 26.7827L20.5127 25.3636C20.6913 25.2601 20.919 25.3169 21.0286 25.4909C21.139 25.6657 21.0915 25.8949 20.9213 26.0115L18.5109 27.6652L20.607 26.4554C20.7818 26.3526 21.0049 26.4055 21.1176 26.5734C21.2303 26.7413 21.1927 26.9683 21.0325 27.0909L17.6576 29.6838L20.7894 27.876C20.9604 27.7771 21.1751 27.8246 21.2908 27.9818C21.4058 28.1397 21.3844 28.3598 21.2395 28.4916L18.6865 30.8131L21.0631 29.4408C21.2234 29.348 21.4265 29.3833 21.5461 29.5236C21.6657 29.6639 21.6688 29.8701 21.5523 30.0142L20.3003 31.5575L21.3683 30.9411C21.5507 30.8338 21.7853 30.8974 21.8919 31.0814C21.9977 31.2647 21.9348 31.4993 21.7516 31.6051L18.8873 33.2588C18.7286 33.3531 18.5239 33.317 18.4043 33.176C18.2847 33.0357 18.2817 32.8294 18.3982 32.6853L19.6509 31.142L15.984 33.2588C15.8145 33.3592 15.5991 33.3101 15.4826 33.153C15.3676 32.995 15.389 32.775 15.5339 32.6431L18.0877 30.3217L12.9993 33.2588C12.8238 33.3615 12.6007 33.3071 12.4887 33.1407C12.3768 32.972 12.4136 32.7459 12.5738 32.6232L15.9479 30.0311L10.3566 33.2588C10.1788 33.363 9.95108 33.3063 9.84068 33.1315C9.73028 32.9567 9.77781 32.7275 9.94801 32.6109L12.3592 30.9565L8.37174 33.2588C8.19311 33.3646 7.96388 33.3055 7.85501 33.1292C7.74538 32.9536 7.79521 32.7236 7.96694 32.6079L10.776 30.7295L6.39528 33.2588C6.21588 33.363 5.98818 33.3055 5.87854 33.1307C5.76891 32.9552 5.81721 32.7259 5.98894 32.6094L11.5603 28.8382L3.90284 33.2588C3.84228 33.294 3.77634 33.3101 3.71118 33.3101L3.71041 33.3094Z" fill="#703B36"/>
<path d="M12.4692 46.5152C12.3419 46.5152 12.2185 46.4524 12.1456 46.3381C12.0352 46.1649 12.0805 45.9364 12.2484 45.8183L14.1995 44.4498L10.7173 46.46C10.5395 46.5643 10.3141 46.5076 10.2029 46.3358C10.0925 46.1626 10.137 45.9349 10.3033 45.816L14.6818 42.7064L8.32073 46.3788C8.14133 46.4853 7.91056 46.4255 7.80169 46.2469C7.69283 46.0698 7.74649 45.8375 7.92129 45.7248L8.31766 45.4687L6.9185 46.2768C6.7391 46.3834 6.50756 46.3228 6.39946 46.1442C6.29136 45.9671 6.34503 45.7348 6.51983 45.6221L7.47586 45.0087L5.5408 46.1258C5.3591 46.2308 5.12833 46.1718 5.021 45.9924C4.9129 45.8145 4.96733 45.5822 5.14366 45.4703L5.5316 45.2242L4.3195 45.9234C4.13856 46.0276 3.9078 45.9686 3.7997 45.79C3.6916 45.6113 3.74603 45.3798 3.92236 45.2679L5.48713 44.2743L3.14956 45.6236C2.97016 45.7279 2.74093 45.6704 2.63206 45.4933C2.5232 45.3177 2.5738 45.0862 2.74706 44.9719L9.54509 40.48L2.123 44.7649C1.94283 44.87 1.71283 44.8109 1.60473 44.6338C1.49586 44.4567 1.548 44.2252 1.72203 44.1117L7.41683 40.4034L1.86616 43.608C1.68676 43.7131 1.45753 43.6548 1.34866 43.4777C1.2398 43.3021 1.2904 43.0714 1.4629 42.9564L7.90366 38.6922L1.86616 42.1782C1.6883 42.2825 1.46136 42.2257 1.3502 42.0517C1.24056 41.8769 1.28733 41.6484 1.45676 41.5311L8.78763 36.4742L1.86616 40.4701C1.68906 40.5736 1.4629 40.5176 1.3525 40.3459C1.2421 40.1741 1.2858 39.9457 1.45216 39.8261L7.96883 35.1793L1.86693 38.7021C1.68983 38.8056 1.46443 38.7497 1.35326 38.5787C1.2421 38.4062 1.2858 38.1785 1.4514 38.0589L5.65733 35.0382L1.8999 37.2071C1.72433 37.3106 1.50046 37.2554 1.38853 37.086C1.2766 36.9166 1.31646 36.6896 1.47976 36.5677L4.3172 34.4533L2.2587 35.6416C2.08926 35.7413 1.8746 35.6945 1.75883 35.5373C1.64306 35.3802 1.663 35.1617 1.80636 35.029L3.6548 33.314C3.50913 33.3217 3.36346 33.258 3.28603 33.1239C3.18023 32.9406 3.2431 32.706 3.42633 32.6002L6.10276 31.0546C6.27296 30.9557 6.48686 31.0033 6.60263 31.1589C6.7184 31.3161 6.69846 31.5346 6.5551 31.6672L4.81936 33.2787L9.60566 30.5157C9.78199 30.4137 10.0059 30.4681 10.117 30.6368C10.229 30.8062 10.1891 31.0332 10.0258 31.1551L7.19296 33.2665L11.9586 30.5149C12.1349 30.4114 12.3611 30.4674 12.4722 30.6383C12.5834 30.8108 12.5397 31.0385 12.3741 31.1581L8.16509 34.1811L14.5077 30.5195C14.6848 30.4152 14.911 30.472 15.0214 30.6437C15.1318 30.8154 15.0881 31.0439 14.9217 31.1635L8.4066 35.8095L16.6774 31.0339C16.8553 30.9304 17.083 30.9872 17.1934 31.1604C17.303 31.3352 17.2562 31.5637 17.0868 31.681L9.75669 36.7372L18.3664 31.7669C18.5458 31.6611 18.7742 31.7193 18.8839 31.8972C18.9927 32.0728 18.9421 32.3035 18.7696 32.4185L12.3235 36.6858L19.4175 32.5903C19.5969 32.4852 19.8269 32.5435 19.9357 32.7214C20.0446 32.8985 19.9925 33.13 19.8184 33.2435L14.1275 36.9495L20.1703 33.4604C20.3497 33.3554 20.579 33.4137 20.6878 33.5908C20.7967 33.7663 20.7461 33.9979 20.5736 34.1121L13.7756 38.6032L20.8036 34.546C20.983 34.4395 21.2153 34.5 21.3234 34.6794C21.4315 34.8573 21.3771 35.0896 21.2007 35.2015L19.6352 36.1959L21.0988 35.351C21.2789 35.2445 21.5105 35.305 21.6186 35.4844C21.7267 35.6623 21.6722 35.8946 21.4959 36.0065L21.1202 36.2457L21.2851 36.1507C21.4652 36.0456 21.696 36.1054 21.8041 36.2833C21.9122 36.4604 21.8585 36.6927 21.6837 36.8054L20.7078 37.431L21.3648 37.0523C21.545 36.9472 21.7757 37.0063 21.8838 37.1841C21.9927 37.3612 21.939 37.5935 21.7642 37.7062L21.374 37.9585C21.5511 37.858 21.775 37.9148 21.8846 38.085C21.995 38.2582 21.9505 38.4859 21.7842 38.6048L17.405 41.7151L21.3709 39.4259C21.5488 39.3231 21.7757 39.3783 21.8854 39.5516C21.9958 39.7249 21.9505 39.9533 21.7826 40.0714L19.8338 41.4376L21.3709 40.5506C21.5442 40.4494 21.7642 40.5007 21.8777 40.6633C21.9912 40.8273 21.9597 41.0512 21.8056 41.1777L19.1223 43.3849L21.3702 42.0877C21.5396 41.9888 21.7535 42.0356 21.8693 42.1905C21.9858 42.3469 21.9666 42.5646 21.8248 42.698L20.6464 43.8097L21.351 43.4033C21.5327 43.2952 21.7681 43.3596 21.8746 43.5436C21.9804 43.7269 21.9176 43.9615 21.7343 44.0673L18.1908 46.1135C18.0214 46.2124 17.8075 46.1664 17.6917 46.0108C17.5752 45.8544 17.5943 45.6366 17.7362 45.5032L18.9153 44.39L15.4837 46.3711C15.3104 46.4723 15.0904 46.4209 14.9769 46.2584C14.8635 46.0943 14.8949 45.8705 15.049 45.744L17.7308 43.5375L12.6593 46.4654C12.5987 46.5007 12.5328 46.5168 12.4676 46.5168L12.4692 46.5152Z" fill="#A880FF"/>
<path d="M12.2397 34.1932C12.1277 34.1932 12.0189 34.1449 11.9437 34.0537C11.8241 33.9095 11.8272 33.7002 11.9491 33.5584L12.8814 32.4812L10.4204 33.9019C10.2479 34.0023 10.0286 33.9525 9.91437 33.7899C9.8009 33.6266 9.83003 33.4043 9.98183 33.2763L11.072 32.3609L9.5157 33.2594C9.34243 33.3614 9.12163 33.31 9.00817 33.1452C8.8947 32.9811 8.9269 32.7565 9.08177 32.6307L10.691 31.322L8.9522 32.3256C8.78047 32.4276 8.56043 32.3762 8.4462 32.2137C8.33197 32.0511 8.36187 31.8273 8.51443 31.7L9.24123 31.0928L8.7728 31.3634C8.60643 31.4608 8.3956 31.4171 8.2783 31.2676C8.161 31.1166 8.1725 30.9019 8.3059 30.7647L8.782 30.2748L8.76667 30.2832C8.63173 30.3614 8.4623 30.3491 8.33887 30.2541C8.21543 30.1575 8.1633 29.9965 8.20623 29.8462L8.40403 29.1539C8.33887 29.1209 8.28213 29.0703 8.24303 29.0021C8.13723 28.8189 8.2001 28.5843 8.38333 28.4785L8.77357 28.2531C8.9085 28.1749 9.07793 28.1871 9.20137 28.2822C9.3248 28.3788 9.37693 28.5398 9.334 28.6901L9.20367 29.1462L10.7853 28.2331C10.9509 28.1365 11.1625 28.1795 11.2798 28.329C11.3971 28.48 11.3856 28.6947 11.2522 28.8319L10.7746 29.3233L12.6966 28.2147C12.8706 28.1143 13.0891 28.1649 13.2026 28.3267C13.3168 28.49 13.2869 28.7131 13.1344 28.8403L12.4083 29.4468L14.4714 28.2561C14.6455 28.1557 14.8655 28.2055 14.979 28.3704C15.0924 28.5344 15.0602 28.7591 14.9054 28.8848L13.2977 30.192L14.4714 29.5142C14.6439 29.4138 14.8632 29.4636 14.9774 29.6262C15.0909 29.7895 15.0618 30.0118 14.91 30.1398L13.819 31.056L14.4668 30.6826C14.6286 30.5868 14.8341 30.6267 14.9537 30.77C15.0733 30.9134 15.0702 31.1235 14.9483 31.2653L13.9762 32.3892C14.1303 32.3547 14.2989 32.4276 14.3833 32.5732C14.4891 32.7565 14.4262 32.9911 14.243 33.0969L12.4306 34.1434C12.3708 34.1786 12.3041 34.1947 12.2389 34.1947L12.2397 34.1932Z" fill="#A0584E"/>
<path d="M15.0899 12.5273C14.9573 12.5273 14.8293 12.4583 14.758 12.3357C14.6514 12.1532 14.7143 11.9186 14.8975 11.812L15.2302 11.6196C15.4135 11.5123 15.6473 11.5759 15.7539 11.7599C15.8604 11.9424 15.7976 12.177 15.6143 12.2835L15.2816 12.476C15.221 12.5112 15.1551 12.5273 15.0899 12.5273Z" fill="#B26356"/>
<path d="M10.8966 30.383C10.7708 30.383 10.6482 30.3217 10.5753 30.209C10.4634 30.038 10.5056 29.8103 10.6696 29.6899L13.126 27.8852L9.47363 29.9935C9.29653 30.0986 9.06959 30.0411 8.95843 29.8678C8.84803 29.6938 8.89403 29.4653 9.0627 29.3472L13.8651 25.9946L8.08366 29.3327C7.90426 29.4369 7.67503 29.3794 7.56616 29.2023C7.45729 29.0268 7.50789 28.796 7.68039 28.681L10.9242 26.5328L7.20353 28.6802C7.02489 28.7845 6.79643 28.7278 6.68679 28.5522C6.57716 28.3774 6.62546 28.1474 6.79643 28.0309L12.5786 24.1032L6.28889 27.7342C6.11103 27.8384 5.88333 27.7817 5.77293 27.6069C5.66329 27.4321 5.71083 27.2029 5.88103 27.0856L12.1669 22.7861L5.50766 26.6309C5.32749 26.736 5.09826 26.6769 4.98939 26.4998C4.88053 26.3227 4.93266 26.092 5.10593 25.9777L7.62903 24.3302L5.06069 25.8129C4.88129 25.9179 4.65206 25.8604 4.54319 25.6826C4.43433 25.507 4.48493 25.2762 4.65743 25.1612L6.99576 23.6133L4.6812 24.9496C4.50256 25.0539 4.2741 24.9972 4.16446 24.8216C4.05483 24.646 4.10313 24.4168 4.27486 24.3003L7.69419 21.9842L4.3178 23.933C4.13993 24.0388 3.90993 23.9798 3.8003 23.8035C3.69143 23.6279 3.74126 23.3979 3.91299 23.2821L6.22449 21.7381L3.08576 23.5497C2.90636 23.6555 2.67636 23.5957 2.56749 23.4186C2.45863 23.2415 2.50999 23.0107 2.68403 22.8973L4.13073 21.9504L2.50539 22.8888C2.32676 22.9931 2.09676 22.9364 1.98789 22.7585C1.87903 22.5829 1.92963 22.3522 2.10213 22.2372L4.88896 20.3933L2.13126 21.9849C1.95186 22.0907 1.72186 22.0317 1.61223 21.8531C1.50413 21.676 1.55703 21.4444 1.73106 21.331L2.32906 20.9446L1.96029 21.1569C1.78319 21.2597 1.55856 21.2045 1.44739 21.035C1.33623 20.8641 1.37763 20.6364 1.5417 20.516L3.76579 18.8853L1.86906 19.9801C1.71189 20.0729 1.51256 20.0391 1.39143 19.9034C1.2703 19.7677 1.2611 19.5669 1.3692 19.4204L2.19949 18.295C2.02393 18.3678 1.82 18.2996 1.7234 18.1317C1.6176 17.9484 1.68046 17.7138 1.8637 17.608L3.40163 16.7202C3.55803 16.6275 3.75813 16.6612 3.87926 16.7969C4.0004 16.9326 4.0096 17.1335 3.90149 17.2799L3.07656 18.3977L9.4606 14.7123C9.63693 14.6081 9.86233 14.664 9.97349 14.8342C10.0847 15.0044 10.0433 15.2329 9.87919 15.3533L7.65739 16.9824L15.2727 12.5864C15.4536 12.4813 15.6836 12.5396 15.7917 12.7182C15.8998 12.8953 15.8469 13.1269 15.6729 13.2403L15.078 13.6252L15.3931 13.4435C15.5725 13.3377 15.8017 13.396 15.9106 13.5738C16.0194 13.7494 15.9688 13.9802 15.7963 14.0952L13.0103 15.939L15.6453 14.4179C15.8239 14.3121 16.0547 14.3712 16.1636 14.549C16.2724 14.7254 16.2211 14.9569 16.047 15.0704L14.598 16.0187L15.9911 15.2145C16.1712 15.1102 16.3997 15.1677 16.5086 15.3441C16.6174 15.5196 16.5676 15.7496 16.3959 15.8654L14.0905 17.4056L16.5469 15.9873C16.7248 15.8823 16.9532 15.9398 17.0636 16.1153C17.1733 16.2909 17.125 16.5201 16.9532 16.6367L13.5339 18.9528L17.5167 16.6535C17.6961 16.5493 17.9254 16.606 18.0342 16.7839C18.1431 16.9594 18.0925 17.1902 17.92 17.3052L15.5786 18.8546L19.2962 16.7087C19.4748 16.6029 19.7056 16.662 19.8144 16.8398C19.9233 17.0162 19.8712 17.2477 19.6979 17.3619L17.1702 19.0133L20.4784 17.1036C20.657 17.0001 20.8855 17.0568 20.9943 17.2308C21.104 17.4056 21.0564 17.6349 20.8862 17.7522L14.6011 22.0509L21.278 18.1961C21.4566 18.091 21.6851 18.1485 21.7947 18.3241C21.9044 18.4989 21.8561 18.7289 21.6851 18.8454L15.9006 22.7746L21.3554 19.6259C21.5348 19.5209 21.7641 19.5791 21.8729 19.7562C21.9818 19.9318 21.9312 20.1626 21.7587 20.2776L18.5157 22.4258L21.2136 20.8687C21.3915 20.7652 21.6184 20.8211 21.7288 20.9944C21.8392 21.1684 21.7932 21.3969 21.6245 21.515L16.8214 24.8676L18.7672 23.7444C18.9427 23.6409 19.1689 23.6961 19.2793 23.8663C19.3912 24.0373 19.3491 24.265 19.185 24.3854L16.7255 26.1924L17.9629 25.4779C18.1362 25.3751 18.3578 25.4273 18.4705 25.5921C18.5839 25.7577 18.551 25.9816 18.3953 26.1073L16.6864 27.4881C16.7876 27.5111 16.8789 27.5739 16.9348 27.6705C17.0406 27.8538 16.9778 28.0884 16.7945 28.1942L13.3284 30.1952C13.1536 30.2964 12.9336 30.245 12.8209 30.0809C12.7074 29.9153 12.7404 29.6915 12.896 29.5657L14.102 28.5913L11.0875 30.3316C11.0269 30.3669 10.9617 30.383 10.8966 30.383Z" fill="#B26356"/>
<path d="M4.78548 16.7042C4.65284 16.7042 4.52404 16.6352 4.45274 16.5126C4.34694 16.3293 4.40981 16.0947 4.59304 15.9889L6.65231 14.8006C6.83401 14.6925 7.06938 14.7569 7.17594 14.9409C7.28174 15.1241 7.21888 15.3587 7.03564 15.4645L4.97638 16.6529C4.91581 16.6881 4.85064 16.7042 4.78548 16.7042Z" fill="#B26356"/>
<path d="M40.3565 20.4569C40.2246 20.4569 40.0951 20.3879 40.0245 20.2652C39.918 20.082 39.9808 19.8474 40.1648 19.7416L45.9041 16.4273C46.0628 16.3338 46.2667 16.3683 46.3879 16.5101C46.5075 16.6512 46.5098 16.8566 46.3932 17.0008L45.0347 18.6721L45.2877 18.5264C45.4702 18.4191 45.7055 18.482 45.8113 18.6667C45.9179 18.85 45.855 19.0846 45.671 19.1904L43.6156 20.3772C43.4554 20.4707 43.253 20.4354 43.1318 20.2944C43.0122 20.1533 43.0099 19.9478 43.1265 19.8037L44.485 18.1331L40.5474 20.4063C40.4868 20.4416 40.4209 20.4577 40.3557 20.4577L40.3565 20.4569Z" fill="#48BCA6"/>
<path d="M34.1632 24.0887C34.0359 24.0887 33.9109 24.0251 33.8381 23.9093C33.7285 23.7337 33.7775 23.5045 33.9485 23.388L37.121 21.2359L34.0643 23.0008C33.8833 23.1043 33.6556 23.0468 33.546 22.8705C33.4371 22.6949 33.4885 22.4634 33.661 22.3491L35.1146 21.39L34.0566 22.0011C33.8787 22.1046 33.6526 22.0486 33.5422 21.8761C33.431 21.7028 33.4762 21.4744 33.6441 21.3555L38.9257 17.6349L34.0459 20.4524C33.8703 20.5551 33.6426 20.4999 33.5314 20.3282C33.421 20.1557 33.4647 19.928 33.6311 19.8084L39.4302 15.6661L31.2299 20.4003C31.0513 20.5045 30.8243 20.4478 30.7139 20.2738C30.6035 20.099 30.6511 19.8705 30.8205 19.7532L38.0525 14.7607L28.2851 20.3995C28.1042 20.5045 27.875 20.4463 27.7661 20.2676C27.6572 20.089 27.7109 19.8582 27.8857 19.7455L32.5792 16.7233L26.6736 20.1327C26.4942 20.2377 26.2634 20.1787 26.1546 20.0001C26.0457 19.823 26.0994 19.5914 26.2742 19.478L32.3393 15.5802L25.6838 19.4228C25.5044 19.5263 25.2752 19.4703 25.1663 19.2924C25.0567 19.1169 25.1081 18.8861 25.2798 18.7711L35.465 12.026L24.9609 18.0903C24.7807 18.1961 24.5492 18.1363 24.4411 17.9569C24.333 17.779 24.3874 17.5467 24.5637 17.4348L30.5008 13.6651L24.8673 16.9165C24.6856 17.0208 24.4556 16.9618 24.3483 16.7839C24.2394 16.6068 24.2931 16.3745 24.4687 16.2618L31.798 11.5529L24.8673 15.5549C24.6872 15.6615 24.4556 15.6009 24.3475 15.4215C24.2394 15.2429 24.2946 15.0106 24.4717 14.8987L28.0659 12.6332L24.8673 14.4793C24.6879 14.5843 24.4579 14.5261 24.3491 14.3482C24.2402 14.1719 24.2916 13.9411 24.4656 13.8269L31.9605 8.91944L24.8673 13.0142C24.6872 13.12 24.4556 13.0602 24.3483 12.8816C24.2402 12.7037 24.2939 12.4714 24.4702 12.3587L26.9105 10.8047L24.8681 11.983C24.6879 12.0881 24.4579 12.029 24.3498 11.8519C24.2417 11.6748 24.2931 11.4441 24.4671 11.3298L27.9217 9.07661L24.8689 10.8392C24.6902 10.9442 24.4625 10.8867 24.3521 10.7111C24.2425 10.5356 24.2908 10.3063 24.4618 10.1898L28.6738 7.33244L24.8689 9.52894C24.6902 9.63397 24.4625 9.57647 24.3529 9.40167C24.2433 9.22687 24.2908 8.99764 24.461 8.88034L27.0922 7.08174L24.8696 8.36514C24.6964 8.46634 24.4717 8.41421 24.3598 8.24784C24.2471 8.08071 24.2831 7.85531 24.4418 7.73111L28.2 4.80014L24.8689 6.72294C24.6994 6.82184 24.4809 6.77507 24.3659 6.61484C24.2509 6.45461 24.2755 6.23381 24.4234 6.10347L26.8561 3.95604L24.8689 5.10297C24.7086 5.19651 24.5032 5.16124 24.3836 5.01787C24.264 4.87527 24.264 4.66751 24.3836 4.52491L25.5213 3.16714C25.3473 3.23614 25.1449 3.16944 25.049 3.00231C24.9425 2.81907 25.0053 2.58447 25.1893 2.47867L27.0109 1.42681C27.1712 1.33327 27.3766 1.36854 27.4962 1.51191C27.6158 1.65451 27.6158 1.86151 27.4962 2.00487L26.3662 3.35344L29.7878 1.37851C29.958 1.28037 30.175 1.32637 30.2907 1.48661C30.405 1.64684 30.3804 1.86764 30.2332 1.99797L27.8014 4.14464L32.5915 1.37927C32.7655 1.27731 32.9886 1.33021 33.1013 1.49657C33.2133 1.66371 33.178 1.88911 33.0193 2.01331L29.2603 4.94504L35.4351 1.38387C35.6145 1.27961 35.8414 1.33711 35.951 1.51114C36.0614 1.68594 36.0131 1.91517 35.8429 2.03247L33.211 3.83184L37.4499 1.38464C37.6285 1.28037 37.857 1.33711 37.9666 1.51267C38.0762 1.68824 38.0272 1.91747 37.8562 2.03401L33.6457 4.89061L39.7177 1.38541C39.8978 1.28037 40.1271 1.33941 40.2359 1.51651C40.3448 1.69361 40.2927 1.92437 40.1194 2.03861L36.6633 4.29337L41.6995 1.38541C41.8804 1.28114 42.1112 1.34017 42.2193 1.51804C42.3274 1.69591 42.273 1.92821 42.0974 2.04091L39.6602 3.59341L43.3954 1.43754C43.5755 1.33251 43.8048 1.39077 43.9136 1.56864C44.0225 1.74497 43.9704 1.97574 43.7971 2.08997L36.3037 6.99741L44.8045 2.08997C44.9862 1.98571 45.2162 2.04397 45.3243 2.22337C45.4324 2.40277 45.3772 2.63431 45.2009 2.74624L41.6113 5.00791L45.4286 2.80451C45.6087 2.69947 45.8395 2.75851 45.9476 2.93714C46.0565 3.11424 46.0028 3.34654 45.828 3.45924L38.4887 8.17347L45.8571 3.91924C46.0388 3.81497 46.2688 3.87401 46.3769 4.05264C46.485 4.23127 46.4306 4.46281 46.2543 4.57474L40.3264 8.33984L45.9047 5.11907C46.0833 5.01404 46.3133 5.07154 46.4222 5.24941C46.5318 5.42497 46.4804 5.65574 46.3087 5.77074L36.1243 12.5151L45.9054 6.86861C46.0848 6.76357 46.3156 6.82261 46.4245 7.00124C46.5333 7.17834 46.4797 7.40987 46.3049 7.52334L40.2375 11.4226L45.9062 8.14971C46.0856 8.04544 46.3164 8.10294 46.4252 8.28157C46.5341 8.46021 46.4804 8.69097 46.3056 8.80367L41.6075 11.8289L45.9062 9.34724C46.0856 9.24374 46.3125 9.30047 46.4222 9.47374C46.5326 9.64854 46.485 9.87701 46.3156 9.99431L39.0844 14.9861L45.9054 11.0477C46.081 10.9434 46.3079 10.9994 46.4199 11.1719C46.5303 11.3444 46.4866 11.5721 46.3202 11.6917L40.5219 15.8332L45.9054 12.7252C46.0818 12.6209 46.3095 12.6776 46.4199 12.8501C46.531 13.0234 46.4858 13.2519 46.3179 13.3707L41.0348 17.0921L45.9054 14.2807C46.0841 14.1757 46.3133 14.234 46.4237 14.4111C46.5326 14.5866 46.4812 14.8182 46.3087 14.9324L44.8612 15.8869L45.9054 15.2843C46.0848 15.1808 46.3118 15.2368 46.4222 15.4123C46.5318 15.5879 46.4827 15.8171 46.3118 15.9337L38.8015 21.0282C38.8015 21.0282 38.803 21.0305 38.8038 21.032C38.9104 21.2152 38.8475 21.4498 38.6635 21.5556L34.3556 24.0427C34.295 24.078 34.2291 24.0941 34.1639 24.0941L34.1632 24.0887Z" fill="#48BCA6"/>
<path d="M46.6826 5.13127C46.8773 2.42417 44.4018 0.877804 41.904 1.2619C36.4798 1.8576 30.1732 -0.0713289 25.2167 2.27467C22.8094 5.83814 24.6218 10.8805 24.0859 14.9983C22.9267 21.324 28.9427 20.6371 33.2866 20.5213C32.4157 27.7395 37.3438 22.6665 40.1253 20.5459C49.8865 22.1758 45.9351 10.9855 46.6826 5.13127ZM39.9796 20.5213C39.9835 20.529 40.0042 20.5351 40.0341 20.539C40.0095 20.5428 39.9888 20.5405 39.9796 20.5213ZM45.5541 17.0606C45.4728 20.5006 41.769 19.3223 39.5871 19.8352C37.9786 20.9077 36.5128 22.3836 34.8989 23.4101C33.857 23.2077 34.6436 20.9093 34.4159 20.0552C28.1032 18.3195 24.5037 22.9195 25.2167 12.5595C25.5203 8.4172 23.3169 0.748238 30.0712 2.12134C34.0548 2.7868 42.7611 0.485271 45.2344 3.532C46.0187 7.90047 45.39 12.5932 45.5541 17.0606Z" fill="#262626"/>
<path d="M2.01001 23.0978C2.92157 25.9651 -0.884928 32.4979 2.86944 33.1633C0.258172 36.1472 1.04247 40.8154 1.29087 44.4709C5.41477 47.7844 12.2726 46.1415 17.3341 46.1284C17.5526 46.2664 17.9643 46.2013 18.1775 46.018C19.8473 45.7689 22.0384 45.4124 22.1411 43.3186C21.9778 39.9 22.9147 36.01 20.561 33.1442C23.9512 32.0103 20.397 25.7428 21.2073 22.7804C22.1151 21.5491 22.5597 19.1801 21.7202 17.7388C26.7043 1.80206 -3.53759 2.18769 1.52241 17.9649C0.613139 19.4277 1.06547 21.7469 2.01001 23.0978ZM2.62641 17.8285C3.07644 17.3056 3.7787 17.4612 4.36291 17.2029C7.1873 13.4339 11.7704 16.8341 14.9 12.8313C15.3247 21.0638 23.3111 13.4661 20.4614 22.5849C20.2482 22.6646 20.0895 22.8271 20.1079 23.0433C19.7606 23.5309 18.7601 23.1783 18.5378 23.7747C16.7369 31.7772 6.31024 31.4506 4.69871 23.4765C2.23387 23.2542 1.63204 19.6907 2.62641 17.8285ZM14.0405 31.7764C13.0952 35.3 8.31431 33.1396 9.09707 29.9909C10.7385 30.4823 12.5256 30.3857 14.1318 29.7892C14.1394 30.4447 14.1946 31.1401 14.0405 31.7764ZM2.23157 30.9967C2.76134 28.6162 3.14007 26.192 3.12321 23.7448C3.29341 23.7701 3.46207 23.7962 3.57017 23.8683C3.65451 23.925 3.48277 23.7341 3.61311 23.8713C4.29467 26.2235 5.78507 28.4805 8.03601 29.5807C7.9394 29.9318 8.01224 30.3328 7.98387 30.7108C6.38844 31.0788 4.78611 31.4468 3.50194 32.5546C2.75674 32.3399 2.08437 31.9236 2.23234 30.996L2.23157 30.9967ZM21.0295 37.919C20.6745 40.6061 22.4838 45.5473 18.3116 45.5036C18.8307 34.2083 16.6579 34.978 17.1915 45.6569C13.4816 45.9812 9.74107 46.0035 6.04037 45.5841C6.60157 35.1145 4.45337 34.5502 4.92947 45.4338C1.30851 45.3564 2.30134 41.464 2.20704 38.9593C1.74167 35.1268 4.01791 31.6576 8.00381 31.1984C8.08967 35.2126 14.7589 35.034 15.2013 31.2927C18.5094 31.7197 21.1805 34.4996 21.0295 37.919ZM20.7742 32.0931C20.5664 32.3261 20.2168 32.4212 19.8902 32.4864C18.5761 31.3839 16.9447 30.999 15.2534 30.608C15.2342 30.1733 15.294 29.6995 15.2082 29.3009C17.3073 28.1417 18.8805 26.0594 19.5897 23.7809C19.776 23.7372 19.9431 23.6712 20.1056 23.6022C19.7453 26.4389 21.1989 29.4297 20.7742 32.0931ZM3.83774 9.44189C9.6736 3.29476 23.5158 7.24616 20.8064 16.9966C13.5008 17.1216 17.7129 9.98622 14.9444 11.6829C12.6046 16.3864 6.75414 13.1664 3.88221 16.7927C3.41071 16.8257 2.93691 16.9391 2.51371 17.1461C1.92797 14.5709 2.11811 11.5357 3.83697 9.44112L3.83774 9.44189Z" fill="#262626"/>
<path d="M31.78 7.55273C30.3042 8.13463 28.8966 9.9271 27.9658 11.0955C31.3507 15.1412 34.3062 15.4272 29.0959 10.7789C29.4854 10.0919 32.7176 7.84023 31.78 7.55273Z" fill="#262626"/>
<path d="M39.74 7.62732C37.0237 7.39195 41.1791 10.1834 41.6851 11.0106C36.2218 16.135 39.9164 14.259 42.7921 10.8665C42.1635 9.71265 40.66 8.72135 39.74 7.62732Z" fill="#262626"/>
<path d="M35.5963 7.12654C35.7121 8.26964 32.6922 16.7996 35.1746 14.6583C35.0589 13.5144 38.0795 4.98524 35.5963 7.12654Z" fill="#262626"/>
</g>
<defs>
<clipPath id="clip0_76_34">
<rect width="46" height="46" fill="white" transform="translate(0.885742 0.925781)"/>
</clipPath>
</defs>
</svg>
