<svg width="174" height="58" viewBox="0 0 174 58" fill="none" xmlns="http://www.w3.org/2000/svg">
<path d="M52.296 18.976C52.296 27.616 41.864 32.416 34.824 34.144C30.536 35.232 26.056 35.68 21.576 35.744C21.64 36 21.64 36.256 21.64 36.512C21.64 37.6 21.064 38.752 19.848 38.752C18.184 38.752 17.416 36.896 17.224 35.552C14.344 35.168 7.624 33.248 7.624 29.344C7.624 28.128 8.648 27.552 9.8 27.552C13.128 27.552 11.656 31.264 16.84 32.032C16.648 29.664 16.456 27.232 16.456 24.864C16.456 19.104 17.288 13.344 18.888 7.776C16.52 8.16 4.808 10.592 4.808 14.368C4.808 17.632 12.808 15.072 12.808 18.144C12.808 19.744 10.824 19.68 9.672 19.68C6.536 19.68 0.776 18.784 0.776 14.624C0.776 7.904 15.176 5.152 19.848 4.576C20.296 3.232 21.128 0.799999 22.92 0.799999C24.072 0.799999 24.712 2.016 24.712 3.04C24.712 3.424 24.648 3.808 24.584 4.192C33.16 4.448 52.296 7.072 52.296 18.976ZM48.968 19.296C48.968 9.76 30.728 7.712 23.688 7.712C23.304 7.712 22.856 7.712 22.472 7.776C20.616 10.976 19.848 20.064 19.848 23.904C19.848 25.568 20.04 31.072 20.68 32.352C21.384 32.416 22.024 32.416 22.664 32.416C30.408 32.416 41.416 30.752 46.792 24.48C48.008 23.008 48.968 21.216 48.968 19.296ZM70.518 25.952C70.518 26.208 70.454 26.464 70.326 26.656C68.534 30.304 64.054 34.208 59.83 34.208C55.414 34.208 52.854 30.368 52.854 26.272C52.854 22.048 55.734 16.096 60.534 16.096C62.774 16.096 64.054 17.76 64.054 19.936C64.054 23.776 60.214 27.552 56.438 27.68C56.886 29.6 58.23 30.816 60.214 30.816C63.798 30.816 66.102 27.808 68.022 25.248C68.406 24.736 68.534 24.544 69.174 24.544C69.942 24.544 70.518 25.184 70.518 25.952ZM60.918 20.704C60.918 20.256 60.598 19.104 60.022 19.104C57.782 19.104 56.502 22.496 56.31 24.224C56.566 24.288 56.822 24.352 57.078 24.352C58.806 24.352 60.918 22.432 60.918 20.704ZM89.556 25.824C89.556 28.64 85.716 30.88 83.22 30.88C82.068 30.88 80.916 30.56 79.892 29.984C78.74 32.928 75.988 35.936 72.596 35.936C68.5 35.936 67.028 32.48 67.028 28.896C67.028 26.656 68.564 18.72 71.572 18.72C72.404 18.72 73.172 19.552 73.172 20.32C73.172 21.024 70.612 25.184 70.612 28.768C70.612 30.24 71.252 32.864 73.108 32.864C74.708 32.864 77.268 29.408 77.268 27.872C77.268 27.168 76.116 25.44 76.116 23.456C76.116 21.984 76.436 19.808 78.356 19.808C80.596 19.808 81.044 22.688 81.044 24.416C81.044 25.12 80.98 25.888 80.852 26.592C81.556 27.232 82.516 27.68 83.476 27.68C86.356 27.68 86.676 24.544 88.212 24.544C89.044 24.544 89.556 24.992 89.556 25.824ZM111.561 26.08C111.561 29.024 103.369 34.976 101.257 36.32C101.705 39.264 102.345 42.144 102.345 45.152C102.345 50.336 99.337 57.12 93.321 57.12C89.225 57.12 85.705 53.024 85.705 49.056C85.705 42.784 93.065 37.792 97.801 34.784C97.673 33.76 97.481 32.736 97.353 31.648C95.625 32.8 93.577 33.696 91.465 33.696C88.393 33.696 86.345 31.648 86.345 28.576C86.345 23.008 93.321 14.688 99.145 14.688C101.641 14.688 103.049 16.416 102.729 18.912C103.049 19.552 103.113 20.256 103.113 20.96C103.113 25.184 100.553 27.04 100.553 29.024C100.553 30.368 100.745 31.712 100.873 32.992C104.137 30.816 106.441 28.448 108.873 25.376C109.257 24.864 109.513 24.672 110.153 24.672C110.921 24.672 111.561 25.312 111.561 26.08ZM99.849 18.464C99.849 17.824 99.273 17.824 98.825 17.824C94.537 17.824 89.673 24.352 89.673 28.384C89.673 29.92 90.697 30.496 92.105 30.496C94.025 30.496 95.881 29.152 97.161 27.872C97.289 23.072 98.249 22.56 99.849 18.464ZM99.145 45.28C99.145 42.848 98.761 40.48 98.313 38.112C94.729 40.224 88.713 44.384 88.713 49.056C88.713 51.616 91.209 54.112 93.769 54.112C95.753 54.112 97.417 52.192 98.249 50.656C99.017 49.184 99.145 46.88 99.145 45.28ZM126.268 25.952C126.268 26.208 126.204 26.464 126.076 26.656C124.284 30.304 119.804 34.208 115.58 34.208C111.164 34.208 108.604 30.368 108.604 26.272C108.604 22.048 111.484 16.096 116.284 16.096C118.524 16.096 119.804 17.76 119.804 19.936C119.804 23.776 115.964 27.552 112.188 27.68C112.636 29.6 113.98 30.816 115.964 30.816C119.548 30.816 121.852 27.808 123.772 25.248C124.156 24.736 124.284 24.544 124.924 24.544C125.692 24.544 126.268 25.184 126.268 25.952ZM116.668 20.704C116.668 20.256 116.348 19.104 115.772 19.104C113.532 19.104 112.252 22.496 112.06 24.224C112.316 24.288 112.572 24.352 112.828 24.352C114.556 24.352 116.668 22.432 116.668 20.704ZM147.546 26.208C147.546 26.464 147.482 26.784 147.418 27.04C146.202 30.432 142.298 36.832 138.202 36.832C132.186 36.832 133.786 30.176 132.89 26.4C132.826 26.08 132.698 25.632 132.25 25.632C129.69 25.632 125.146 34.912 123.418 34.912C122.586 34.912 121.498 34.464 121.498 33.44C121.498 32.928 121.882 32.352 122.202 31.904C122.97 30.88 123.354 26.4 123.354 25.12C123.354 23.712 122.778 22.24 122.778 20.896C122.778 19.744 123.674 18.848 124.826 18.848C127.322 18.848 126.938 24.544 126.938 26.272C128.474 24.544 130.778 22.24 133.274 22.24C139.034 22.24 134.618 33.312 138.714 33.312C142.426 33.312 143.898 24.736 146.202 24.736C147.034 24.736 147.546 25.376 147.546 26.208ZM151.707 13.152C151.707 15.008 150.299 16.928 148.315 16.928C147.163 16.928 146.203 16.224 146.203 15.008C146.203 13.152 147.291 10.464 149.531 10.464C151.003 10.464 151.707 11.872 151.707 13.152ZM158.427 25.952C158.427 28.448 154.459 32.736 152.539 34.208C151.387 35.04 149.979 35.552 148.571 35.552C145.114 35.552 144.282 32.48 144.282 29.6C144.282 27.552 144.474 19.808 147.355 19.808C148.315 19.808 148.891 20.576 148.891 21.472C148.891 23.328 147.674 26.656 147.674 29.408C147.674 30.56 147.674 32.288 149.275 32.288C151.835 32.288 154.651 27.36 155.675 25.504C155.995 25.056 156.507 24.608 157.083 24.608C157.851 24.608 158.427 25.184 158.427 25.952ZM173.143 25.952C173.143 26.208 173.079 26.464 172.951 26.656C171.159 30.304 166.679 34.208 162.455 34.208C158.039 34.208 155.479 30.368 155.479 26.272C155.479 22.048 158.359 16.096 163.159 16.096C165.399 16.096 166.679 17.76 166.679 19.936C166.679 23.776 162.839 27.552 159.063 27.68C159.511 29.6 160.855 30.816 162.839 30.816C166.423 30.816 168.727 27.808 170.647 25.248C171.031 24.736 171.159 24.544 171.799 24.544C172.567 24.544 173.143 25.184 173.143 25.952ZM163.543 20.704C163.543 20.256 163.223 19.104 162.647 19.104C160.407 19.104 159.127 22.496 158.935 24.224C159.191 24.288 159.447 24.352 159.703 24.352C161.431 24.352 163.543 22.432 163.543 20.704Z" fill="#7A9D00"/>
</svg>
