<svg width="87" height="29" viewBox="0 0 87 29" fill="none" xmlns="http://www.w3.org/2000/svg">
<path d="M25.7623 9.56271C25.7623 13.8827 20.5463 16.2827 17.0263 17.1467C14.8823 17.6907 12.6423 17.9147 10.4023 17.9467C10.4343 18.0747 10.4343 18.2027 10.4343 18.3307C10.4343 18.8747 10.1463 19.4507 9.53826 19.4507C8.70626 19.4507 8.32226 18.5227 8.22626 17.8507C6.78626 17.6587 3.42626 16.6987 3.42626 14.7467C3.42626 14.1387 3.93826 13.8507 4.51426 13.8507C6.17826 13.8507 5.44226 15.7067 8.03426 16.0907C7.93826 14.9067 7.84226 13.6907 7.84226 12.5067C7.84226 9.62671 8.25826 6.74671 9.05826 3.96271C7.87426 4.15471 2.01826 5.37071 2.01826 7.25871C2.01826 8.89071 6.01826 7.61071 6.01826 9.14671C6.01826 9.94671 5.02626 9.91471 4.45026 9.91471C2.88226 9.91471 0.00225782 9.46671 0.00225782 7.38671C0.00225782 4.02671 7.20226 2.65071 9.53826 2.36271C9.76226 1.69071 10.1783 0.474707 11.0743 0.474707C11.6503 0.474707 11.9703 1.08271 11.9703 1.59471C11.9703 1.78671 11.9383 1.97871 11.9063 2.17071C16.1943 2.29871 25.7623 3.61071 25.7623 9.56271ZM24.0983 9.72271C24.0983 4.95471 14.9783 3.93071 11.4583 3.93071C11.2663 3.93071 11.0423 3.93071 10.8503 3.96271C9.92226 5.56271 9.53826 10.1067 9.53826 12.0267C9.53826 12.8587 9.63426 15.6107 9.95426 16.2507C10.3063 16.2827 10.6263 16.2827 10.9463 16.2827C14.8183 16.2827 20.3223 15.4507 23.0103 12.3147C23.6183 11.5787 24.0983 10.6827 24.0983 9.72271ZM34.8733 13.0507C34.8733 13.1787 34.8413 13.3067 34.7773 13.4027C33.8813 15.2267 31.6413 17.1787 29.5293 17.1787C27.3213 17.1787 26.0413 15.2587 26.0413 13.2107C26.0413 11.0987 27.4813 8.12271 29.8813 8.12271C31.0013 8.12271 31.6413 8.95471 31.6413 10.0427C31.6413 11.9627 29.7213 13.8507 27.8333 13.9147C28.0573 14.8747 28.7293 15.4827 29.7213 15.4827C31.5133 15.4827 32.6653 13.9787 33.6253 12.6987C33.8173 12.4427 33.8813 12.3467 34.2013 12.3467C34.5853 12.3467 34.8733 12.6667 34.8733 13.0507ZM30.0733 10.4267C30.0733 10.2027 29.9133 9.62671 29.6253 9.62671C28.5053 9.62671 27.8653 11.3227 27.7693 12.1867C27.8973 12.2187 28.0253 12.2507 28.1533 12.2507C29.0173 12.2507 30.0733 11.2907 30.0733 10.4267ZM44.3923 12.9867C44.3923 14.3947 42.4723 15.5147 41.2243 15.5147C40.6483 15.5147 40.0723 15.3547 39.5603 15.0667C38.9843 16.5387 37.6083 18.0427 35.9123 18.0427C33.8643 18.0427 33.1283 16.3147 33.1283 14.5227C33.1283 13.4027 33.8963 9.43471 35.4003 9.43471C35.8163 9.43471 36.2003 9.85071 36.2003 10.2347C36.2003 10.5867 34.9203 12.6667 34.9203 14.4587C34.9203 15.1947 35.2403 16.5067 36.1683 16.5067C36.9683 16.5067 38.2483 14.7787 38.2483 14.0107C38.2483 13.6587 37.6723 12.7947 37.6723 11.8027C37.6723 11.0667 37.8323 9.97871 38.7923 9.97871C39.9123 9.97871 40.1363 11.4187 40.1363 12.2827C40.1363 12.6347 40.1043 13.0187 40.0403 13.3707C40.3923 13.6907 40.8723 13.9147 41.3523 13.9147C42.7923 13.9147 42.9523 12.3467 43.7203 12.3467C44.1363 12.3467 44.3923 12.5707 44.3923 12.9867ZM55.3948 13.1147C55.3948 14.5867 51.2988 17.5627 50.2428 18.2347C50.4668 19.7067 50.7868 21.1467 50.7868 22.6507C50.7868 25.2427 49.2828 28.6347 46.2748 28.6347C44.2268 28.6347 42.4668 26.5867 42.4668 24.6027C42.4668 21.4667 46.1468 18.9707 48.5148 17.4667C48.4508 16.9547 48.3548 16.4427 48.2908 15.8987C47.4268 16.4747 46.4028 16.9227 45.3468 16.9227C43.8108 16.9227 42.7868 15.8987 42.7868 14.3627C42.7868 11.5787 46.2748 7.41871 49.1868 7.41871C50.4348 7.41871 51.1388 8.28271 50.9788 9.53071C51.1388 9.85071 51.1708 10.2027 51.1708 10.5547C51.1708 12.6667 49.8908 13.5947 49.8908 14.5867C49.8908 15.2587 49.9868 15.9307 50.0508 16.5707C51.6828 15.4827 52.8348 14.2987 54.0508 12.7627C54.2428 12.5067 54.3708 12.4107 54.6908 12.4107C55.0748 12.4107 55.3948 12.7307 55.3948 13.1147ZM49.5388 9.30671C49.5388 8.98671 49.2508 8.98671 49.0268 8.98671C46.8828 8.98671 44.4508 12.2507 44.4508 14.2667C44.4508 15.0347 44.9628 15.3227 45.6668 15.3227C46.6268 15.3227 47.5548 14.6507 48.1948 14.0107C48.2588 11.6107 48.7388 11.3547 49.5388 9.30671ZM49.1868 22.7147C49.1868 21.4987 48.9948 20.3147 48.7708 19.1307C46.9788 20.1867 43.9708 22.2667 43.9708 24.6027C43.9708 25.8827 45.2188 27.1307 46.4988 27.1307C47.4908 27.1307 48.3228 26.1707 48.7388 25.4027C49.1228 24.6667 49.1868 23.5147 49.1868 22.7147ZM62.7483 13.0507C62.7483 13.1787 62.7163 13.3067 62.6523 13.4027C61.7563 15.2267 59.5163 17.1787 57.4043 17.1787C55.1963 17.1787 53.9163 15.2587 53.9163 13.2107C53.9163 11.0987 55.3563 8.12271 57.7563 8.12271C58.8763 8.12271 59.5163 8.95471 59.5163 10.0427C59.5163 11.9627 57.5963 13.8507 55.7083 13.9147C55.9323 14.8747 56.6043 15.4827 57.5963 15.4827C59.3883 15.4827 60.5403 13.9787 61.5003 12.6987C61.6923 12.4427 61.7563 12.3467 62.0763 12.3467C62.4603 12.3467 62.7483 12.6667 62.7483 13.0507ZM57.9483 10.4267C57.9483 10.2027 57.7883 9.62671 57.5003 9.62671C56.3803 9.62671 55.7403 11.3227 55.6443 12.1867C55.7723 12.2187 55.9003 12.2507 56.0283 12.2507C56.8923 12.2507 57.9483 11.2907 57.9483 10.4267ZM73.3873 13.1787C73.3873 13.3067 73.3553 13.4667 73.3233 13.5947C72.7153 15.2907 70.7633 18.4907 68.7153 18.4907C65.7073 18.4907 66.5073 15.1627 66.0593 13.2747C66.0273 13.1147 65.9633 12.8907 65.7393 12.8907C64.4593 12.8907 62.1873 17.5307 61.3233 17.5307C60.9073 17.5307 60.3633 17.3067 60.3633 16.7947C60.3633 16.5387 60.5553 16.2507 60.7153 16.0267C61.0993 15.5147 61.2913 13.2747 61.2913 12.6347C61.2913 11.9307 61.0033 11.1947 61.0033 10.5227C61.0033 9.94671 61.4513 9.49871 62.0273 9.49871C63.2753 9.49871 63.0833 12.3467 63.0833 13.2107C63.8513 12.3467 65.0033 11.1947 66.2513 11.1947C69.1313 11.1947 66.9233 16.7307 68.9713 16.7307C70.8273 16.7307 71.5633 12.4427 72.7153 12.4427C73.1313 12.4427 73.3873 12.7627 73.3873 13.1787ZM75.4675 6.65071C75.4675 7.57871 74.7635 8.53871 73.7715 8.53871C73.1955 8.53871 72.7155 8.18671 72.7155 7.57871C72.7155 6.65071 73.2595 5.30671 74.3795 5.30671C75.1155 5.30671 75.4675 6.01071 75.4675 6.65071ZM78.8275 13.0507C78.8275 14.2987 76.8435 16.4427 75.8835 17.1787C75.3075 17.5947 74.6035 17.8507 73.8995 17.8507C72.1715 17.8507 71.7555 16.3147 71.7555 14.8747C71.7555 13.8507 71.8515 9.97871 73.2915 9.97871C73.7715 9.97871 74.0595 10.3627 74.0595 10.8107C74.0595 11.7387 73.4515 13.4027 73.4515 14.7787C73.4515 15.3547 73.4515 16.2187 74.2515 16.2187C75.5315 16.2187 76.9395 13.7547 77.4515 12.8267C77.6115 12.6027 77.8675 12.3787 78.1555 12.3787C78.5395 12.3787 78.8275 12.6667 78.8275 13.0507ZM86.1858 13.0507C86.1858 13.1787 86.1538 13.3067 86.0898 13.4027C85.1938 15.2267 82.9538 17.1787 80.8418 17.1787C78.6338 17.1787 77.3538 15.2587 77.3538 13.2107C77.3538 11.0987 78.7938 8.12271 81.1938 8.12271C82.3138 8.12271 82.9538 8.95471 82.9538 10.0427C82.9538 11.9627 81.0338 13.8507 79.1458 13.9147C79.3698 14.8747 80.0418 15.4827 81.0338 15.4827C82.8258 15.4827 83.9778 13.9787 84.9378 12.6987C85.1298 12.4427 85.1938 12.3467 85.5138 12.3467C85.8978 12.3467 86.1858 12.6667 86.1858 13.0507ZM81.3858 10.4267C81.3858 10.2027 81.2258 9.62671 80.9378 9.62671C79.8178 9.62671 79.1778 11.3227 79.0818 12.1867C79.2098 12.2187 79.3378 12.2507 79.4658 12.2507C80.3298 12.2507 81.3858 11.2907 81.3858 10.4267Z" fill="#65CAAB"/>
</svg>
