<svg width="44" height="49" viewBox="0 0 44 49" fill="none" xmlns="http://www.w3.org/2000/svg">
<circle cx="22" cy="22.5" r="22" fill="#4B6102"/>
<path d="M34.648 21.988C34.648 26.308 29.432 28.708 25.912 29.572C23.768 30.116 21.528 30.34 19.288 30.372C19.32 30.5 19.32 30.628 19.32 30.756C19.32 31.3 19.032 31.876 18.424 31.876C17.592 31.876 17.208 30.948 17.112 30.276C15.672 30.084 12.312 29.124 12.312 27.172C12.312 26.564 12.824 26.276 13.4 26.276C15.064 26.276 14.328 28.132 16.92 28.516C16.824 27.332 16.728 26.116 16.728 24.932C16.728 22.052 17.144 19.172 17.944 16.388C16.76 16.58 10.904 17.796 10.904 19.684C10.904 21.316 14.904 20.036 14.904 21.572C14.904 22.372 13.912 22.34 13.336 22.34C11.768 22.34 8.888 21.892 8.888 19.812C8.888 16.452 16.088 15.076 18.424 14.788C18.648 14.116 19.064 12.9 19.96 12.9C20.536 12.9 20.856 13.508 20.856 14.02C20.856 14.212 20.824 14.404 20.792 14.596C25.08 14.724 34.648 16.036 34.648 21.988ZM32.984 22.148C32.984 17.38 23.864 16.356 20.344 16.356C20.152 16.356 19.928 16.356 19.736 16.388C18.808 17.988 18.424 22.532 18.424 24.452C18.424 25.284 18.52 28.036 18.84 28.676C19.192 28.708 19.512 28.708 19.832 28.708C23.704 28.708 29.208 27.876 31.896 24.74C32.504 24.004 32.984 23.108 32.984 22.148Z" fill="white"/>
</svg>
