<svg width="120" height="121" viewBox="0 0 120 121" fill="none" xmlns="http://www.w3.org/2000/svg">
<g clip-path="url(#clip0_33_109)">
<path d="M45.9375 55.8887C44.6439 55.8887 43.5938 56.9388 43.5938 58.2324C43.5938 59.5261 44.6439 60.5762 45.9375 60.5762C47.2311 60.5762 48.2812 59.5261 48.2812 58.2324C48.2812 56.9388 47.2311 55.8887 45.9375 55.8887Z" fill="url(#paint0_linear_33_109)"/>
<path d="M104.28 75.3253L96.5625 83.0432L93.5321 80.0128C92.6166 79.0973 91.1334 79.0973 90.2179 80.0128C89.3024 80.9274 89.3024 82.4115 90.2179 83.327L94.9054 88.0145C95.3631 88.4723 95.9628 88.7011 96.5625 88.7011C97.1622 88.7011 97.7618 88.4723 98.2196 88.0145L107.595 78.6395C108.51 77.7249 108.51 76.2408 107.595 75.3253C106.679 74.4098 105.196 74.4098 104.28 75.3253Z" fill="url(#paint1_linear_33_109)"/>
<path d="M117.656 62.6854C115.112 62.6854 113.054 60.696 112.972 58.1563C112.931 56.8929 111.895 55.8886 110.629 55.8886H105.937C105.937 48.0773 105.937 28.4457 105.937 20.7324C105.937 16.8552 102.783 13.7012 98.9061 13.7012H7.03124C3.15399 13.7012 0 16.8552 0 20.7324V81.6698C0 85.547 3.15399 88.701 7.03124 88.701H78.857C82.6289 102.072 96.2227 107.717 98.896 107.717C99.568 107.717 99.6925 107.529 100.541 107.275C103.558 106.373 111.571 103.977 116.941 93.5496C118.942 89.6632 120 85.2907 120 80.9062V65.0292C120 63.7346 118.951 62.6854 117.656 62.6854ZM4.68749 32.4511H101.25V41.8261H4.68749V32.4511ZM7.03124 18.3887H98.9061C100.199 18.3887 101.25 19.4406 101.25 20.7324V27.7636H4.68749V20.7324C4.68749 19.4406 5.73851 18.3887 7.03124 18.3887ZM4.68749 81.6698V46.5136H101.25V55.8886H87.1873C85.8928 55.8886 84.8436 56.9378 84.8436 58.2323C84.8436 60.8169 82.7406 62.9198 80.1561 62.9198C78.8615 62.9198 77.8124 63.969 77.8124 65.2636V80.9062C77.8124 81.9573 77.8655 82.9955 77.9698 84.0135H7.03124C5.73851 84.0135 4.68749 82.9616 4.68749 81.6698ZM115.312 80.9062C115.312 84.5482 114.434 88.1783 112.774 91.4036C108.316 100.058 101.692 102.038 99.1981 102.784C99.0397 102.831 98.8942 102.875 98.7605 102.916C97.5566 102.522 94.6232 101.349 91.6258 99.1151C85.4744 94.532 82.4998 88.2753 82.4998 80.9062V67.3107C85.7893 66.4611 88.3848 63.8656 89.2345 60.5761H108.635C109.537 63.7841 112.084 66.2624 115.312 67.0818V80.9062Z" fill="url(#paint2_linear_33_109)"/>
<path d="M25.7812 69.9512H15C13.7054 69.9512 12.6562 71.0004 12.6562 72.2949C12.6562 73.5895 13.7054 74.6387 15 74.6387H25.7812C27.0758 74.6387 28.125 73.5895 28.125 72.2949C28.125 71.0004 27.0758 69.9512 25.7812 69.9512Z" fill="url(#paint3_linear_33_109)"/>
<path d="M45.9375 69.9512H35.1562C33.8617 69.9512 32.8125 71.0004 32.8125 72.2949C32.8125 73.5895 33.8617 74.6387 35.1562 74.6387H45.9375C47.232 74.6387 48.2812 73.5895 48.2812 72.2949C48.2812 71.0004 47.232 69.9512 45.9375 69.9512Z" fill="url(#paint4_linear_33_109)"/>
<path d="M66.0937 69.9512H55.3125C54.0179 69.9512 52.9688 71.0004 52.9688 72.2949C52.9688 73.5895 54.0179 74.6387 55.3125 74.6387H66.0937C67.3883 74.6387 68.4375 73.5895 68.4375 72.2949C68.4375 71.0004 67.3883 69.9512 66.0937 69.9512Z" fill="url(#paint5_linear_33_109)"/>
<path d="M15 60.5762H36.5625C37.857 60.5762 38.9062 59.527 38.9062 58.2324C38.9062 56.9379 37.857 55.8887 36.5625 55.8887H15C13.7054 55.8887 12.6562 56.9379 12.6562 58.2324C12.6562 59.527 13.7054 60.5762 15 60.5762Z" fill="url(#paint6_linear_33_109)"/>
</g>
<defs>
<linearGradient id="paint0_linear_33_109" x1="45.9375" y1="55.8887" x2="45.9375" y2="60.5762" gradientUnits="userSpaceOnUse">
<stop stop-color="#ABED8A"/>
<stop offset="1" stop-color="#5EC7AE"/>
</linearGradient>
<linearGradient id="paint1_linear_33_109" x1="98.9062" y1="74.6387" x2="98.9062" y2="88.7011" gradientUnits="userSpaceOnUse">
<stop stop-color="#ABED8A"/>
<stop offset="1" stop-color="#5EC7AE"/>
</linearGradient>
<linearGradient id="paint2_linear_33_109" x1="59.9999" y1="13.7012" x2="59.9999" y2="107.717" gradientUnits="userSpaceOnUse">
<stop stop-color="#ABED8A"/>
<stop offset="1" stop-color="#5EC7AE"/>
</linearGradient>
<linearGradient id="paint3_linear_33_109" x1="20.3906" y1="69.9512" x2="20.3906" y2="74.6387" gradientUnits="userSpaceOnUse">
<stop stop-color="#ABED8A"/>
<stop offset="1" stop-color="#5EC7AE"/>
</linearGradient>
<linearGradient id="paint4_linear_33_109" x1="40.5469" y1="69.9512" x2="40.5469" y2="74.6387" gradientUnits="userSpaceOnUse">
<stop stop-color="#ABED8A"/>
<stop offset="1" stop-color="#5EC7AE"/>
</linearGradient>
<linearGradient id="paint5_linear_33_109" x1="60.7031" y1="69.9512" x2="60.7031" y2="74.6387" gradientUnits="userSpaceOnUse">
<stop stop-color="#ABED8A"/>
<stop offset="1" stop-color="#5EC7AE"/>
</linearGradient>
<linearGradient id="paint6_linear_33_109" x1="25.7812" y1="55.8887" x2="25.7812" y2="60.5762" gradientUnits="userSpaceOnUse">
<stop stop-color="#ABED8A"/>
<stop offset="1" stop-color="#5EC7AE"/>
</linearGradient>
<clipPath id="clip0_33_109">
<rect width="120" height="120" fill="white" transform="translate(0 0.810547)"/>
</clipPath>
</defs>
</svg>
