<svg width="120" height="121" viewBox="0 0 120 121" fill="none" xmlns="http://www.w3.org/2000/svg">
<g clip-path="url(#clip0_33_62)">
<path d="M97.0332 35.6738C98.3274 35.6738 99.377 34.6245 99.377 33.3301V7.8418C99.377 3.96477 96.2227 0.810547 92.3457 0.810547H7.0332C3.15617 0.810547 0.00195312 3.96477 0.00195312 7.8418V113.779C0.00195312 117.656 3.15617 120.811 7.0332 120.811H92.3457C96.2227 120.811 99.377 117.656 99.377 113.779V96.5124C99.377 95.218 98.3274 94.1687 97.0332 94.1687C95.739 94.1687 94.6895 95.218 94.6895 96.5124V113.779C94.6895 115.072 93.638 116.123 92.3457 116.123H7.0332C5.74086 116.123 4.68945 115.072 4.68945 113.779V7.8418C4.68945 6.54945 5.74086 5.49805 7.0332 5.49805H92.3457C93.638 5.49805 94.6895 6.54945 94.6895 7.8418V33.3301C94.6895 34.6245 95.739 35.6738 97.0332 35.6738Z" fill="url(#paint0_linear_33_62)"/>
<path d="M49.6895 13.4668C37.7998 13.4668 28.127 23.1397 28.127 35.0293C28.127 41.1973 30.7309 46.768 34.8962 50.7017C34.9742 50.7852 35.0572 50.8641 35.1479 50.9361C38.9848 54.4468 44.0912 56.5916 49.6892 56.5916C55.2873 56.5916 60.3936 54.4466 64.2305 50.9361C64.3213 50.8641 64.4042 50.7849 64.4823 50.7017C68.648 46.768 71.2519 41.1973 71.2519 35.0293C71.2519 23.1397 61.5791 13.4668 49.6895 13.4668ZM49.6895 51.9043C45.8623 51.9043 42.3303 50.6218 39.4963 48.4665C41.5562 44.8137 45.4002 42.5293 49.6895 42.5293C53.9788 42.5293 57.8227 44.8137 59.8827 48.4665C57.0484 50.6218 53.5166 51.9043 49.6895 51.9043ZM45.9395 34.0918V32.5684C45.9395 30.5007 47.6218 28.8184 49.6895 28.8184C51.7571 28.8184 53.4395 30.5007 53.4395 32.5684V34.0918C53.4395 36.1595 51.7571 37.8418 49.6895 37.8418C47.6218 37.8418 45.9395 36.1595 45.9395 34.0918ZM63.2691 45.0331C61.5406 42.4695 59.1451 40.4757 56.3637 39.2448C57.4677 37.8181 58.127 36.031 58.127 34.0918V32.5684C58.127 27.9158 54.342 24.1309 49.6895 24.1309C45.0369 24.1309 41.252 27.9158 41.252 32.5684V34.0918C41.252 36.031 41.9112 37.8181 43.0152 39.2448C40.2338 40.4757 37.8383 42.4695 36.1098 45.0331C34.0405 42.2316 32.8145 38.7716 32.8145 35.0293C32.8145 25.7244 40.3845 18.1543 49.6895 18.1543C58.9944 18.1543 66.5644 25.7244 66.5644 35.0293C66.5644 38.7716 65.3384 42.2316 63.2691 45.0331Z" fill="url(#paint1_linear_33_62)"/>
<path d="M62.3457 103.467H49.6895C48.3952 103.467 47.3457 104.516 47.3457 105.811C47.3457 107.105 48.3952 108.154 49.6895 108.154H62.3457C63.6399 108.154 64.6894 107.105 64.6894 105.811C64.6894 104.516 63.6399 103.467 62.3457 103.467Z" fill="url(#paint2_linear_33_62)"/>
<path d="M62.3457 90.3418H29.0645C27.7702 90.3418 26.7207 91.3911 26.7207 92.6855C26.7207 93.98 27.7702 95.0293 29.0645 95.0293H62.3457C63.6399 95.0293 64.6894 93.98 64.6894 92.6855C64.6894 91.3911 63.6399 90.3418 62.3457 90.3418Z" fill="url(#paint3_linear_33_62)"/>
<path d="M62.3457 77.2168H29.0645C27.7702 77.2168 26.7207 78.2661 26.7207 79.5605C26.7207 80.855 27.7702 81.9043 29.0645 81.9043H62.3457C63.6399 81.9043 64.6894 80.855 64.6894 79.5605C64.6894 78.2661 63.6399 77.2168 62.3457 77.2168Z" fill="url(#paint4_linear_33_62)"/>
<path d="M20.7109 64.7785C20.2752 64.3426 19.6705 64.0918 19.0518 64.0918C18.4351 64.0918 17.8304 64.3426 17.3947 64.7785C16.9588 65.2145 16.708 65.8191 16.708 66.4355C16.708 67.052 16.9586 67.6566 17.3947 68.0926C17.833 68.5285 18.4351 68.7793 19.0518 68.7793C19.6705 68.7793 20.2729 68.5285 20.7109 68.0926C21.1468 67.6566 21.3979 67.052 21.3979 66.4355C21.3979 65.8191 21.1471 65.2145 20.7109 64.7785Z" fill="url(#paint5_linear_33_62)"/>
<path d="M20.7109 77.9035C20.2729 77.4676 19.6705 77.2168 19.0518 77.2168C18.4351 77.2168 17.833 77.4676 17.3947 77.9035C16.9588 78.3395 16.708 78.9441 16.708 79.5605C16.708 80.177 16.9586 80.7816 17.3947 81.2176C17.833 81.6535 18.4351 81.9043 19.0518 81.9043C19.6705 81.9043 20.2729 81.6535 20.7109 81.2176C21.1468 80.7816 21.3979 80.177 21.3979 79.5605C21.3979 78.9441 21.1471 78.3395 20.7109 77.9035Z" fill="url(#paint6_linear_33_62)"/>
<path d="M20.7109 91.0285C20.2729 90.5926 19.6705 90.3418 19.0518 90.3418C18.4351 90.3418 17.833 90.5926 17.3947 91.0285C16.9588 91.4645 16.708 92.0691 16.708 92.6855C16.708 93.302 16.9586 93.9066 17.3947 94.3426C17.8304 94.7785 18.4351 95.0293 19.0518 95.0293C19.6705 95.0293 20.2752 94.7785 20.7109 94.3426C21.1468 93.9066 21.3979 93.302 21.3979 92.6855C21.3979 92.0691 21.1471 91.4645 20.7109 91.0285Z" fill="url(#paint7_linear_33_62)"/>
<path d="M62.3457 64.0918H29.0645C27.7702 64.0918 26.7207 65.1411 26.7207 66.4355C26.7207 67.73 27.7702 68.7793 29.0645 68.7793H62.3457C63.6399 68.7793 64.6894 67.73 64.6894 66.4355C64.6894 65.1411 63.6399 64.0918 62.3457 64.0918Z" fill="url(#paint8_linear_33_62)"/>
<path d="M115.078 31.3543C112.801 30.0396 110.149 29.6904 107.608 30.3708C105.069 31.0514 102.946 32.6803 101.631 34.9573L72.1372 86.0424C71.9757 86.3225 71.8735 86.633 71.8376 86.9543L69.7615 105.551C69.6584 106.476 70.1126 107.375 70.9189 107.84C71.2829 108.05 71.6872 108.154 72.0905 108.154C72.5808 108.154 73.0693 108.001 73.4806 107.698L88.5472 96.6017C88.8076 96.41 89.0255 96.1665 89.187 95.8864L118.681 44.8013C121.395 40.1007 119.779 34.0683 115.078 31.3543ZM75.0144 100.747L76.0986 91.036L82.8819 94.9524L75.0144 100.747ZM86.2995 91.5127L77.3687 86.3564L101.037 45.3619L109.968 50.5182L86.2995 91.5127ZM114.622 42.4573L112.311 46.4588L103.381 41.3025L105.691 37.301C106.379 36.1083 107.491 35.2552 108.822 34.8987C110.152 34.542 111.542 34.7253 112.734 35.4139C113.927 36.1025 114.78 37.2143 115.137 38.5446C115.493 39.875 115.31 41.2646 114.622 42.4573Z" fill="url(#paint9_linear_33_62)"/>
</g>
<defs>
<linearGradient id="paint0_linear_33_62" x1="49.6895" y1="0.810547" x2="49.6895" y2="120.811" gradientUnits="userSpaceOnUse">
<stop stop-color="#5EC7AE"/>
<stop offset="1" stop-color="#ABED8A"/>
</linearGradient>
<linearGradient id="paint1_linear_33_62" x1="49.6895" y1="13.4668" x2="49.6895" y2="56.5916" gradientUnits="userSpaceOnUse">
<stop stop-color="#5EC7AE"/>
<stop offset="1" stop-color="#ABED8A"/>
</linearGradient>
<linearGradient id="paint2_linear_33_62" x1="56.0176" y1="103.467" x2="56.0176" y2="108.154" gradientUnits="userSpaceOnUse">
<stop stop-color="#5EC7AE"/>
<stop offset="1" stop-color="#ABED8A"/>
</linearGradient>
<linearGradient id="paint3_linear_33_62" x1="45.7051" y1="90.3418" x2="45.7051" y2="95.0293" gradientUnits="userSpaceOnUse">
<stop stop-color="#5EC7AE"/>
<stop offset="1" stop-color="#ABED8A"/>
</linearGradient>
<linearGradient id="paint4_linear_33_62" x1="45.7051" y1="77.2168" x2="45.7051" y2="81.9043" gradientUnits="userSpaceOnUse">
<stop stop-color="#5EC7AE"/>
<stop offset="1" stop-color="#ABED8A"/>
</linearGradient>
<linearGradient id="paint5_linear_33_62" x1="19.0529" y1="64.0918" x2="19.0529" y2="68.7793" gradientUnits="userSpaceOnUse">
<stop stop-color="#5EC7AE"/>
<stop offset="1" stop-color="#ABED8A"/>
</linearGradient>
<linearGradient id="paint6_linear_33_62" x1="19.0529" y1="77.2168" x2="19.0529" y2="81.9043" gradientUnits="userSpaceOnUse">
<stop stop-color="#5EC7AE"/>
<stop offset="1" stop-color="#ABED8A"/>
</linearGradient>
<linearGradient id="paint7_linear_33_62" x1="19.0529" y1="90.3418" x2="19.0529" y2="95.0293" gradientUnits="userSpaceOnUse">
<stop stop-color="#5EC7AE"/>
<stop offset="1" stop-color="#ABED8A"/>
</linearGradient>
<linearGradient id="paint8_linear_33_62" x1="45.7051" y1="64.0918" x2="45.7051" y2="68.7793" gradientUnits="userSpaceOnUse">
<stop stop-color="#5EC7AE"/>
<stop offset="1" stop-color="#ABED8A"/>
</linearGradient>
<linearGradient id="paint9_linear_33_62" x1="94.8725" y1="30.0312" x2="94.8725" y2="108.154" gradientUnits="userSpaceOnUse">
<stop stop-color="#5EC7AE"/>
<stop offset="1" stop-color="#ABED8A"/>
</linearGradient>
<clipPath id="clip0_33_62">
<rect width="120" height="120" fill="white" transform="translate(0 0.810547)"/>
</clipPath>
</defs>
</svg>
