<svg width="120" height="121" viewBox="0 0 120 121" fill="none" xmlns="http://www.w3.org/2000/svg">
<g clip-path="url(#clip0_33_48)">
<path d="M96.7887 59.5744L94.4419 56.5945C93.1603 54.9675 90.803 54.6872 89.1755 55.9688C87.5484 57.2501 87.2681 59.6079 88.5495 61.2349L93.1256 67.0458C93.8639 67.983 94.9624 68.4759 96.0743 68.4759C96.8384 68.4759 97.609 68.243 98.2727 67.7618L118.15 53.3527C119.826 52.137 120.2 49.7925 118.985 48.1155C117.769 46.4388 115.425 46.0648 113.748 47.2805L111.11 49.1923V46.9331C111.11 44.8622 109.432 43.1831 107.36 43.1831H79.1566C77.0855 43.1831 75.4066 44.8622 75.4066 46.9331V56.8711H70.9261V21.8095H75.7076V31.7477C75.7076 33.8187 77.3864 35.4977 79.4576 35.4977H107.662C109.733 35.4977 111.412 33.8187 111.412 31.7477V27.4027C111.412 25.3317 109.733 23.6527 107.662 23.6527C105.591 23.6527 103.912 25.3317 103.912 27.4027V27.9977H83.2078V8.12109H103.912V12.067L97.0898 17.0126L94.743 14.0327C93.4617 12.4057 91.1039 12.1254 89.4766 13.407C87.8494 14.6885 87.5693 17.0461 88.8506 18.6731L93.4268 24.4838C94.1651 25.421 95.2636 25.9139 96.3755 25.9139C97.1395 25.9139 97.9102 25.6809 98.5739 25.1998L118.451 10.7906C120.128 9.57516 120.502 7.23047 119.286 5.55352C118.07 3.8768 115.726 3.50273 114.049 4.71844L111.412 6.63023V4.37109C111.412 2.30016 109.733 0.621094 107.662 0.621094H79.4578C77.3866 0.621094 75.7078 2.30016 75.7078 4.37109V14.3095H67.1763C65.1052 14.3095 63.4263 15.9886 63.4263 18.0595V56.8711H58.8162C58.2764 54.4362 56.1012 52.6092 53.5062 52.6092C52.339 52.6092 51.8648 51.7695 51.7153 51.408C51.5655 51.0469 51.3068 50.1178 52.1311 49.2933C53.1593 48.2658 53.7255 46.8996 53.7255 45.4458C53.7255 43.9924 53.1595 42.626 52.1323 41.5995L48.4945 37.9617C46.3734 35.8406 42.9225 35.8409 40.8014 37.9617C39.9762 38.787 39.0471 38.5284 38.6862 38.3787C38.325 38.2291 37.485 37.7552 37.485 36.5876C37.485 33.5883 35.0447 31.148 32.0452 31.148H26.9011C23.9016 31.148 21.4615 33.5883 21.4615 36.5876C21.4615 37.755 20.6215 38.2289 20.2603 38.3787C19.8996 38.5284 18.9703 38.7872 18.1446 37.9617C17.1171 36.9342 15.7512 36.3684 14.298 36.3684C12.8447 36.3684 11.4785 36.9345 10.4515 37.9617L6.81422 41.5995C5.78648 42.6267 5.2207 43.9929 5.2207 45.446C5.2207 46.8994 5.78672 48.2655 6.81398 49.2923C7.63922 50.1178 7.38047 51.0469 7.2307 51.408C7.08117 51.7692 6.60727 52.6092 5.43984 52.6092C2.44008 52.6092 0 55.0495 0 58.0488V63.1931C0 66.1927 2.44008 68.6327 5.43961 68.6327C6.6068 68.6327 7.08094 69.4725 7.23047 69.8339C7.38023 70.1951 7.63898 71.1241 6.81398 71.9494C5.78625 72.9766 5.22047 74.3428 5.22047 75.7959C5.22047 77.2493 5.78625 78.6152 6.81375 79.6425L10.451 83.2798C11.4783 84.3075 12.8445 84.8735 14.2978 84.8735C15.7509 84.8735 17.1169 84.3077 18.1444 83.2802C18.9731 82.452 19.901 82.7098 20.262 82.8593C20.6224 83.0088 21.4613 83.4827 21.4613 84.6544C21.4613 87.6537 23.9013 90.094 26.9009 90.094H32.0449C35.0445 90.094 37.4848 87.6537 37.4848 84.6544C37.4848 83.487 38.3248 83.013 38.6859 82.8635C39.0469 82.7138 39.9759 82.4552 40.8014 83.2805C42.9225 85.4016 46.3737 85.4013 48.4943 83.2805L52.1313 79.6434C53.1595 78.6159 53.7255 77.2498 53.7255 75.7962C53.7255 74.3428 53.1595 72.9764 52.132 71.9498C51.3068 71.1244 51.5655 70.1953 51.7153 69.8341C51.8648 69.473 52.3387 68.633 53.5062 68.633C56.1012 68.633 58.2764 66.806 58.8162 64.3711H63.4263V103.183C63.4263 104.178 63.8215 105.131 64.5248 105.835C65.228 106.538 66.1819 106.933 67.1763 106.933H75.1059V116.871C75.1059 118.942 76.7848 120.621 78.8559 120.621H107.06C109.131 120.621 110.81 118.942 110.81 116.871V112.526C110.81 110.455 109.131 108.776 107.06 108.776C104.989 108.776 103.31 110.455 103.31 112.526V113.121H82.6059V93.2445H103.31V97.1904L96.4875 102.136L94.1407 99.1561C92.8591 97.5291 90.5018 97.249 88.8743 98.5303C87.2473 99.8116 86.967 102.169 88.2483 103.796L92.8245 109.607C93.5627 110.545 94.6612 111.037 95.7731 111.037C96.5372 111.037 97.3078 110.805 97.9716 110.323L117.849 95.9142C119.525 94.6988 119.899 92.3541 118.684 90.6771C117.468 89.0002 115.124 88.6263 113.447 89.842L110.809 91.7538V89.4947C110.809 87.4238 109.131 85.7447 107.059 85.7447H78.8557C76.7845 85.7447 75.1057 87.4238 75.1057 89.4947V99.4331H70.9261V64.3711H75.4066V74.3095C75.4066 76.3805 77.0855 78.0595 79.1566 78.0595H107.361C109.432 78.0595 111.111 76.3805 111.111 74.3095V69.9642C111.111 67.8933 109.432 66.2142 107.361 66.2142C105.289 66.2142 103.611 67.8933 103.611 69.9642V70.5595H82.9066V50.6827H103.611V54.6288L96.7887 59.5744ZM51.4458 61.3584C48.4842 62.0163 45.9837 64.0727 44.786 66.964C43.5886 69.8552 43.9024 73.0772 45.5316 75.6368L44.4886 76.6798C41.9297 75.0509 38.7077 74.7368 35.8158 75.9345C32.9243 77.1321 30.8681 79.6324 30.2102 82.5942H28.7362C28.0786 79.6301 26.0229 77.1281 23.1319 75.9305C20.2411 74.733 17.0177 75.0485 14.457 76.6795L13.4145 75.637C15.0431 73.0777 15.3574 69.8555 14.1598 66.964C12.9621 64.0727 10.4613 62.0166 7.5 61.3584V59.8838C10.4613 59.2256 12.9621 57.1695 14.1595 54.2782C15.357 51.387 15.0431 48.165 13.4142 45.6054L14.457 44.5624C17.0163 46.1911 20.2387 46.5056 23.1298 45.308C26.0215 44.1103 28.0777 41.6098 28.7355 38.6482H30.21C30.8679 41.6098 32.9241 44.1103 35.8155 45.308C38.7075 46.5056 41.9292 46.1916 44.4884 44.5624L45.5311 45.6052C43.9022 48.1645 43.5881 51.3867 44.7858 54.2782C45.9834 57.1695 48.484 59.2259 51.4455 59.8838L51.4458 61.3584ZM29.4729 47.7286C22.3638 47.7286 16.5802 53.512 16.5802 60.6211C16.5802 67.7302 22.3638 73.5136 29.4729 73.5136C36.5817 73.5136 42.3654 67.7302 42.3654 60.6211C42.3654 53.512 36.5817 47.7286 29.4729 47.7286ZM29.4729 66.0136C26.4991 66.0136 24.0802 63.5946 24.0802 60.6211C24.0802 57.6476 26.4991 55.2286 29.4729 55.2286C32.4464 55.2286 34.8654 57.6476 34.8654 60.6211C34.8654 63.5946 32.4464 66.0136 29.4729 66.0136Z" fill="url(#paint0_linear_33_48)"/>
</g>
<defs>
<linearGradient id="paint0_linear_33_48" x1="126.311" y1="12.5121" x2="32.9972" y2="105.826" gradientUnits="userSpaceOnUse">
<stop stop-color="#5EC7AE"/>
<stop offset="1" stop-color="#ABED8A"/>
</linearGradient>
<clipPath id="clip0_33_48">
<rect width="120" height="120" fill="white" transform="translate(0 0.621094)"/>
</clipPath>
</defs>
</svg>
