<svg width="37" height="37" viewBox="0 0 37 37" fill="none" xmlns="http://www.w3.org/2000/svg">
<g clip-path="url(#clip0_76_12)">
<path d="M13.2955 36.6085C13.2304 36.6085 13.1671 36.5874 13.1151 36.5483C13.063 36.5093 13.0251 36.4543 13.0071 36.3918C12.989 36.3293 12.9917 36.2626 13.0148 36.2018C13.038 36.141 13.0802 36.0894 13.1353 36.0547L16.3579 34.0243L11.9515 36.5659C11.8837 36.6026 11.8045 36.6118 11.7301 36.5917C11.6558 36.5715 11.592 36.5236 11.552 36.4577C11.5121 36.3918 11.499 36.3131 11.5155 36.2378C11.532 36.1626 11.5768 36.0966 11.6407 36.0535L17.8633 32.0935L10.1113 36.5659C10.0431 36.6043 9.96268 36.6145 9.88707 36.5944C9.81147 36.5744 9.74669 36.5256 9.70655 36.4584C9.66641 36.3913 9.65407 36.3111 9.67218 36.235C9.69029 36.1589 9.7374 36.0929 9.80348 36.0511L11.9197 34.7467L9.18848 36.3259C9.12068 36.3638 9.04082 36.3739 8.96571 36.3541C8.89059 36.3343 8.82608 36.2862 8.78574 36.2198C8.7454 36.1534 8.73238 36.074 8.74941 35.9982C8.76645 35.9224 8.81222 35.8562 8.87708 35.8135L17.9131 30.0571L8.42708 35.5333C8.35882 35.5742 8.2771 35.5863 8.19991 35.5669C8.12272 35.5476 8.05638 35.4983 8.01548 35.4301C7.97459 35.3618 7.96248 35.2801 7.98184 35.2029C8.00119 35.1257 8.05042 35.0594 8.11868 35.0185L14.2855 31.1785L8.25368 34.6585C8.18583 34.6958 8.10618 34.7054 8.0314 34.6853C7.95661 34.6653 7.89247 34.6171 7.85241 34.5508C7.81234 34.4846 7.79945 34.4054 7.81642 34.3298C7.8334 34.2543 7.87892 34.1882 7.94348 34.1455L17.4511 28.1107L8.25368 33.4201C8.18583 33.4574 8.10618 33.467 8.0314 33.4469C7.95661 33.4269 7.89247 33.3787 7.85241 33.3124C7.81234 33.2462 7.79945 33.167 7.81642 33.0914C7.8334 33.0159 7.87892 32.9498 7.94348 32.9071L16.8337 27.2887L8.25368 32.2417C8.18596 32.277 8.10731 32.2852 8.03377 32.2645C7.96024 32.2438 7.89735 32.1959 7.85794 32.1305C7.81853 32.065 7.80556 31.987 7.82168 31.9124C7.83779 31.8377 7.88179 31.772 7.94468 31.7287L16.0057 26.6593L8.25368 31.1359C8.18575 31.1747 8.10535 31.1854 8.02961 31.1658C7.95387 31.1462 7.88879 31.0978 7.84825 31.0308C7.80771 30.9639 7.79491 30.8838 7.81259 30.8076C7.83027 30.7314 7.87702 30.6651 7.94288 30.6229L17.8483 24.3157L8.25368 29.8549C8.18534 29.8956 8.10361 29.9075 8.02647 29.888C7.94934 29.8685 7.88312 29.8191 7.84238 29.7508C7.80165 29.6824 7.78973 29.6007 7.80925 29.5236C7.82877 29.4464 7.87814 29.3802 7.94648 29.3395L12.0145 26.8303L8.25368 29.0011C8.18585 29.0368 8.10689 29.0453 8.03303 29.0247C7.95917 29.004 7.89601 28.9559 7.85653 28.8901C7.81706 28.8244 7.80425 28.746 7.82076 28.6711C7.83727 28.5962 7.88182 28.5305 7.94528 28.4875L15.0505 24.0439L8.25368 27.9679C8.18585 28.0036 8.10689 28.0121 8.03303 27.9915C7.95917 27.9708 7.89601 27.9227 7.85653 27.8569C7.81706 27.7912 7.80425 27.7128 7.82076 27.6379C7.83727 27.563 7.88182 27.4973 7.94528 27.4543L14.7409 23.2123L8.25368 26.9569C8.18575 26.9957 8.10535 27.0064 8.02961 26.9868C7.95387 26.9672 7.88879 26.9188 7.84825 26.8518C7.80771 26.7849 7.79491 26.7048 7.81259 26.6286C7.83027 26.5524 7.87702 26.4861 7.94288 26.4439L17.6581 20.2639L8.25368 25.6963C8.18574 25.7326 8.10644 25.7413 8.0322 25.7207C7.95797 25.7002 7.8945 25.6518 7.85494 25.5857C7.81538 25.5196 7.80275 25.4409 7.81968 25.3657C7.83661 25.2906 7.8818 25.2248 7.94588 25.1821L13.6867 21.6157L8.25368 24.7525C8.18557 24.7889 8.10604 24.7976 8.03165 24.7768C7.95726 24.7561 7.89374 24.7074 7.85431 24.641C7.81489 24.5746 7.80259 24.4956 7.81998 24.4203C7.83737 24.3451 7.88311 24.2794 7.94768 24.2371L9.56348 23.2459L8.25368 24.0019C8.18553 24.0403 8.10508 24.0505 8.02947 24.0304C7.95387 24.0104 7.88909 23.9616 7.84895 23.8944C7.80881 23.8273 7.79647 23.7471 7.81458 23.671C7.83269 23.5949 7.8798 23.5289 7.94588 23.4871L13.5733 19.9933L8.25308 23.0659C8.18519 23.1026 8.10572 23.1118 8.03122 23.0915C7.95673 23.0712 7.89294 23.0229 7.85313 22.9567C7.81332 22.8906 7.80056 22.8116 7.8175 22.7363C7.83444 22.6609 7.87978 22.595 7.94408 22.5523L15.3397 17.9215L8.25308 22.0129C8.18528 22.0508 8.10542 22.0609 8.03031 22.0411C7.95519 22.0213 7.89068 21.9732 7.85034 21.9068C7.81 21.8404 7.79698 21.761 7.81401 21.6852C7.83105 21.6094 7.87682 21.5432 7.94168 21.5005L18.3769 14.8261L8.25308 20.6707C8.18535 20.7074 8.10609 20.7166 8.03172 20.6965C7.95736 20.6763 7.8936 20.6284 7.85364 20.5625C7.81369 20.4966 7.8006 20.4179 7.81711 20.3426C7.83361 20.2674 7.87843 20.2014 7.94228 20.1583L17.7403 13.9249L8.25308 19.4017C8.18528 19.4396 8.10542 19.4497 8.03031 19.4299C7.95519 19.4101 7.89068 19.362 7.85034 19.2956C7.81 19.2292 7.79698 19.1498 7.81401 19.074C7.83105 18.9982 7.87682 18.932 7.94168 18.8893L18.3817 12.2119L8.25308 18.0595C8.21928 18.0797 8.18182 18.0931 8.14284 18.0989C8.10386 18.1047 8.06413 18.1027 8.02591 18.0931C7.98769 18.0835 7.95173 18.0665 7.92009 18.043C7.88844 18.0195 7.86173 17.9901 7.84148 17.9563C7.80059 17.888 7.78848 17.8063 7.80784 17.7291C7.82719 17.6519 7.87642 17.5856 7.94468 17.5447L14.3089 13.5811L8.25308 17.0767C8.18515 17.1155 8.10475 17.1262 8.02901 17.1066C7.95327 17.087 7.88819 17.0386 7.84765 16.9716C7.8071 16.9047 7.79431 16.8246 7.81199 16.7484C7.82967 16.6722 7.87642 16.6059 7.94228 16.5637L17.6257 10.4059L8.25308 15.8179C8.18497 15.8543 8.10544 15.863 8.03105 15.8422C7.95666 15.8215 7.89314 15.7728 7.85371 15.7064C7.81429 15.64 7.80199 15.561 7.81938 15.4857C7.83677 15.4105 7.88251 15.3448 7.94708 15.3025L8.55668 14.9299L8.25308 15.1051C8.18489 15.1428 8.1047 15.1525 8.02949 15.1321C7.95427 15.1117 7.88994 15.0629 7.8501 14.9959C7.81026 14.9289 7.79804 14.8491 7.81603 14.7733C7.83402 14.6974 7.8808 14.6316 7.94648 14.5897L9.94568 13.3627L8.25308 14.3389C8.18509 14.3747 8.10594 14.3831 8.03195 14.3622C7.95796 14.3414 7.89479 14.293 7.85546 14.227C7.81614 14.1609 7.80365 14.0823 7.82059 14.0074C7.83752 13.9324 7.88259 13.8668 7.94648 13.8241L9.60908 12.8041L8.25308 13.5841C8.18515 13.6229 8.10475 13.6336 8.02901 13.614C7.95327 13.5944 7.88819 13.546 7.84765 13.479C7.8071 13.4121 7.79431 13.332 7.81199 13.2558C7.82967 13.1796 7.87642 13.1133 7.94228 13.0711L14.8423 8.67666L8.25308 12.4801C8.18545 12.5179 8.10581 12.528 8.03085 12.5084C7.95589 12.4888 7.89142 12.441 7.85095 12.3749C7.81047 12.3088 7.79712 12.2297 7.8137 12.154C7.83028 12.0783 7.8755 12.012 7.93988 11.9689L14.7901 7.51866L8.25308 11.2927C8.18571 11.3299 8.10662 11.3397 8.03217 11.3203C7.95772 11.3008 7.8936 11.2534 7.85307 11.188C7.81254 11.1226 7.7987 11.0441 7.81441 10.9688C7.83012 10.8934 7.87418 10.827 7.93748 10.7833L14.1139 6.69306L8.25308 10.0765C8.18519 10.1162 8.10439 10.1278 8.02809 10.1085C7.95178 10.0893 7.88609 10.0409 7.84516 9.97366C7.80424 9.90645 7.79136 9.82585 7.8093 9.74923C7.82725 9.67261 7.87457 9.60611 7.94108 9.56406L10.3267 8.02926L8.25308 9.22626C8.18606 9.2641 8.10707 9.27474 8.03243 9.25597C7.95778 9.23721 7.89321 9.19047 7.85206 9.12543C7.81091 9.06039 7.79633 8.98202 7.81134 8.90654C7.82634 8.83105 7.86979 8.76422 7.93268 8.71986L12.6073 5.48586L8.25308 7.99926C8.18602 8.03829 8.10644 8.04981 8.03106 8.03141C7.95568 8.01301 7.89036 7.96612 7.84881 7.90059C7.80727 7.83505 7.79274 7.75596 7.80826 7.67994C7.82379 7.60391 7.86817 7.53686 7.93208 7.49286L10.9243 5.41686L8.25308 6.95946C8.18612 6.99789 8.10691 7.00903 8.03195 6.99054C7.95698 6.97206 7.89203 6.92539 7.8506 6.86023C7.80917 6.79508 7.79446 6.71646 7.80953 6.64073C7.82459 6.565 7.86827 6.498 7.93148 6.45366L9.56948 5.31366L8.25308 6.07266C8.18805 6.10944 8.11164 6.12062 8.0388 6.10404C7.96596 6.08745 7.90193 6.04428 7.85923 5.98298C7.81654 5.92167 7.79825 5.84664 7.80795 5.77257C7.81765 5.69849 7.85464 5.63071 7.91168 5.58246L10.3351 3.56946L8.25308 4.76946C8.18916 4.80772 8.11329 4.82082 8.04025 4.80622C7.9672 4.79162 7.90219 4.75037 7.85788 4.69049C7.81357 4.63061 7.79312 4.55638 7.80051 4.48226C7.80791 4.40813 7.84262 4.33941 7.89788 4.28946L9.17648 3.08586L8.25308 3.61806C8.19163 3.65303 8.1198 3.66516 8.05026 3.65232C7.98073 3.63948 7.91797 3.60249 7.87306 3.54789C7.82814 3.49328 7.80395 3.42457 7.80476 3.35387C7.80557 3.28317 7.83133 3.21502 7.87748 3.16146L8.41388 2.54886C8.35679 2.53328 8.30559 2.50116 8.26671 2.45655C8.22782 2.41194 8.20301 2.35682 8.19537 2.29814C8.18774 2.23945 8.19764 2.17982 8.22381 2.12675C8.24999 2.07367 8.29128 2.02953 8.34248 1.99986L9.50228 1.33146C9.56381 1.29614 9.63586 1.28376 9.70564 1.29653C9.77543 1.3093 9.83843 1.34638 9.88346 1.4012C9.9285 1.45601 9.95265 1.52502 9.95163 1.59595C9.9506 1.66689 9.92448 1.73517 9.87788 1.78866L9.52328 2.19306L11.0983 1.28586C11.1622 1.24699 11.2384 1.2334 11.3118 1.24777C11.3852 1.26215 11.4506 1.30343 11.4952 1.36354C11.5397 1.42365 11.5602 1.49823 11.5526 1.57267C11.545 1.6471 11.5099 1.716 11.4541 1.76586L10.1755 2.96886L13.0939 1.28586C13.1589 1.24909 13.2353 1.2379 13.3082 1.25449C13.381 1.27108 13.445 1.31424 13.4877 1.37555C13.5304 1.43685 13.5487 1.51188 13.539 1.58596C13.5293 1.66003 13.4923 1.72782 13.4353 1.77606L11.0119 3.78786L15.3457 1.28586C15.4125 1.24886 15.4909 1.23874 15.565 1.25758C15.639 1.27641 15.7031 1.32277 15.7441 1.38721C15.7851 1.45165 15.8 1.52932 15.7857 1.60436C15.7715 1.6794 15.7291 1.74618 15.6673 1.79106L14.0323 2.93106L16.8865 1.28586C16.9534 1.24847 17.0321 1.23811 17.1064 1.25692C17.1807 1.27573 17.245 1.32227 17.2861 1.387C17.3272 1.45173 17.3419 1.52972 17.3273 1.60498C17.3127 1.68023 17.2698 1.74703 17.2075 1.79166L14.2117 3.86586L18.6889 1.28586C18.7558 1.24934 18.834 1.23964 18.9078 1.25872C18.9816 1.27781 19.0453 1.32425 19.0861 1.38862C19.1269 1.453 19.1416 1.53047 19.1274 1.60533C19.1131 1.68018 19.0709 1.7468 19.0093 1.79166L14.3359 5.02206L20.8105 1.28586C20.8782 1.24729 20.9583 1.23662 21.0338 1.2561C21.1093 1.27557 21.1743 1.32367 21.2149 1.39021C21.2556 1.45674 21.2687 1.53648 21.2516 1.61254C21.2344 1.6886 21.1883 1.75499 21.1231 1.79766L18.7339 3.33306L22.2835 1.28586C22.3509 1.24867 22.4299 1.23879 22.5044 1.25826C22.5788 1.27774 22.643 1.32508 22.6835 1.3905C22.724 1.45592 22.7379 1.53441 22.7222 1.60975C22.7064 1.68508 22.6624 1.7515 22.5991 1.79526L16.4257 5.88126L24.3895 1.28586C24.457 1.24965 24.5357 1.24061 24.6096 1.26059C24.6836 1.28057 24.747 1.32806 24.7871 1.39333C24.8271 1.45861 24.8407 1.53672 24.825 1.61167C24.8093 1.68662 24.7655 1.75273 24.7027 1.79646L17.8477 6.24786L26.4457 1.28586C26.5134 1.24916 26.5927 1.23991 26.667 1.26005C26.7414 1.28019 26.8052 1.32817 26.8451 1.39404C26.8851 1.45991 26.8982 1.53863 26.8817 1.61388C26.8652 1.68913 26.8203 1.75516 26.7565 1.79826L19.8613 6.18966L28.1983 1.37706C28.2663 1.34123 28.3454 1.33286 28.4194 1.35368C28.4934 1.3745 28.5566 1.42292 28.5959 1.48895C28.6352 1.55499 28.6477 1.6336 28.6308 1.70857C28.6138 1.78354 28.5688 1.84915 28.5049 1.89186L26.8381 2.91666L28.8895 1.73286C28.9576 1.69595 29.0372 1.68679 29.1119 1.70729C29.1866 1.72779 29.2504 1.77637 29.2901 1.84286C29.3298 1.90935 29.3422 1.9886 29.3248 2.06405C29.3074 2.13949 29.2615 2.20528 29.1967 2.24766L27.2029 3.47166L29.3029 2.25966C29.3711 2.22196 29.4513 2.21227 29.5265 2.23265C29.6017 2.25302 29.666 2.30186 29.7059 2.36883C29.7457 2.4358 29.7579 2.51565 29.7399 2.59146C29.7219 2.66728 29.6752 2.73313 29.6095 2.77506L28.9885 3.15426L29.4781 2.87166C29.5461 2.83037 29.6278 2.81779 29.7051 2.83669C29.7824 2.8556 29.849 2.90443 29.8903 2.97246C29.9316 3.04049 29.9442 3.12214 29.9253 3.19944C29.9063 3.27674 29.8575 3.34337 29.7895 3.38466L20.1097 9.53886L29.5177 4.10586C29.5857 4.0684 29.6656 4.05877 29.7406 4.079C29.8155 4.09923 29.8797 4.14774 29.9197 4.21434C29.9596 4.28093 29.9722 4.36042 29.9547 4.43608C29.9373 4.51175 29.8912 4.5777 29.8261 4.62006L23.4619 8.58606L29.5177 5.08986C29.5855 5.05196 29.6653 5.04184 29.7405 5.06162C29.8156 5.0814 29.8801 5.12955 29.9204 5.19593C29.9608 5.26231 29.9738 5.34174 29.9568 5.41753C29.9397 5.49331 29.894 5.55953 29.8291 5.60226L19.3891 12.2803L29.5177 6.43266C29.5854 6.39596 29.6647 6.38671 29.739 6.40685C29.8134 6.42699 29.8772 6.47497 29.9171 6.54084C29.9571 6.60671 29.9702 6.68543 29.9537 6.76068C29.9372 6.83593 29.8923 6.90195 29.8285 6.94506L20.0365 13.1749L29.5165 7.70106C29.5843 7.66316 29.6641 7.65304 29.7393 7.67282C29.8144 7.6926 29.8789 7.74075 29.9192 7.80713C29.9596 7.87351 29.9726 7.95294 29.9556 8.02873C29.9385 8.10451 29.8928 8.17073 29.8279 8.21346L19.3879 14.8909L29.5177 9.04326C29.5858 9.00399 29.6666 8.99302 29.7427 9.01273C29.8188 9.03243 29.8842 9.08123 29.9247 9.14863C29.9652 9.21602 29.9776 9.29662 29.9593 9.37308C29.941 9.44954 29.8933 9.51575 29.8267 9.55746L22.4395 14.1859L29.5195 10.0993C29.5876 10.0609 29.6681 10.0506 29.7437 10.0707C29.8193 10.0907 29.8841 10.1395 29.9242 10.2067C29.9644 10.2738 29.9767 10.354 29.9586 10.4301C29.9405 10.5062 29.8934 10.5722 29.8273 10.6141L24.1939 14.1079L29.5177 11.0347C29.5858 10.9983 29.6653 10.9895 29.7397 11.0103C29.8141 11.031 29.8776 11.0797 29.9171 11.1461C29.9565 11.2125 29.9688 11.2916 29.9514 11.3668C29.934 11.442 29.8883 11.5077 29.8237 11.5501L28.2079 12.5389L29.5177 11.7859C29.5856 11.7496 29.6649 11.7408 29.7392 11.7614C29.8134 11.782 29.8769 11.8303 29.9164 11.8964C29.956 11.9625 29.9686 12.0413 29.9517 12.1164C29.9348 12.1916 29.8896 12.2573 29.8255 12.3001L24.0853 15.8659L29.5177 12.7297C29.5854 12.693 29.6647 12.6837 29.739 12.7039C29.8134 12.724 29.8772 12.772 29.9171 12.8378C29.9571 12.9037 29.9702 12.9824 29.9537 13.0577C29.9372 13.1329 29.8923 13.199 29.8285 13.2421L20.1133 19.4221L29.5177 13.9879C29.5855 13.9521 29.6645 13.9436 29.7383 13.9643C29.8122 13.9849 29.8754 14.033 29.9148 14.0988C29.9543 14.1645 29.9671 14.2429 29.9506 14.3178C29.9341 14.3927 29.8895 14.4584 29.8261 14.5015L23.0347 18.7411L29.5183 14.9983C29.5863 14.9608 29.6662 14.9512 29.7412 14.9714C29.8161 14.9916 29.8803 15.0401 29.9203 15.1067C29.9602 15.1733 29.9728 15.2528 29.9553 15.3285C29.9379 15.4041 29.8918 15.4701 29.8267 15.5125L22.7131 19.9609L29.5183 16.0321C29.5863 15.9952 29.666 15.986 29.7407 16.0065C29.8154 16.027 29.8792 16.0756 29.9189 16.1421C29.9586 16.2085 29.971 16.2878 29.9536 16.3632C29.9362 16.4387 29.8903 16.5045 29.8255 16.5469L25.7575 19.0567L29.5183 16.8859C29.586 16.8492 29.6653 16.8399 29.7396 16.8601C29.814 16.8802 29.8778 16.9282 29.9177 16.994C29.9577 17.0599 29.9708 17.1386 29.9543 17.2139C29.9378 17.2891 29.8929 17.3552 29.8291 17.3983L19.9231 23.7055L29.5183 18.1663C29.5862 18.1295 29.6656 18.1203 29.7401 18.1406C29.8146 18.161 29.8784 18.2092 29.9182 18.2754C29.958 18.3416 29.9708 18.4205 29.9539 18.4959C29.9369 18.5712 29.8916 18.6371 29.8273 18.6799L21.7657 23.7493L29.5201 19.2727C29.5882 19.2315 29.6699 19.2191 29.7471 19.2382C29.8243 19.2573 29.8908 19.3063 29.932 19.3744C29.9731 19.4425 29.9855 19.5241 29.9664 19.6014C29.9474 19.6786 29.8984 19.7451 29.8303 19.7863L20.9383 25.4059L29.5183 20.4523C29.586 20.4165 29.6647 20.408 29.7385 20.4284C29.8123 20.4488 29.8754 20.4967 29.9151 20.5622C29.9547 20.6276 29.9678 20.7058 29.9517 20.7806C29.9356 20.8554 29.8915 20.9213 29.8285 20.9647L20.3257 26.9959L29.5183 21.6859C29.5866 21.645 29.6683 21.6329 29.7455 21.6522C29.8226 21.6716 29.889 21.7208 29.9299 21.7891C29.9708 21.8573 29.9829 21.939 29.9635 22.0162C29.9442 22.0934 29.895 22.1598 29.8267 22.2007L23.6407 26.0539L29.5207 22.6603C29.5886 22.6214 29.669 22.6107 29.7448 22.6303C29.8205 22.6499 29.8856 22.6984 29.9261 22.7653C29.9667 22.8322 29.9795 22.9123 29.9618 22.9885C29.9441 23.0647 29.8973 23.131 29.8315 23.1733L20.7985 28.9291L29.5183 23.8951C29.5866 23.8543 29.6684 23.8424 29.7455 23.8619C29.8226 23.8815 29.8888 23.9308 29.9296 23.9992C29.9703 24.0675 29.9822 24.1492 29.9627 24.2264C29.9432 24.3035 29.8938 24.3697 29.8255 24.4105L27.7147 25.7125L29.5183 24.6709C29.5862 24.632 29.6666 24.6213 29.7424 24.6409C29.8181 24.6605 29.8832 24.709 29.9237 24.7759C29.9643 24.8428 29.9771 24.9229 29.9594 24.9991C29.9417 25.0753 29.8949 25.1416 29.8291 25.1839L23.6029 29.1487L29.5183 25.7341C29.5861 25.6978 29.6652 25.689 29.7393 25.7094C29.8134 25.7298 29.8768 25.7778 29.9165 25.8436C29.9563 25.9094 29.9692 25.988 29.9527 26.063C29.9362 26.1381 29.8915 26.204 29.8279 26.2471L26.6113 28.2739L29.5183 26.5939C29.586 26.5566 29.6654 26.547 29.7401 26.5668C29.8147 26.5867 29.8788 26.6346 29.919 26.7006C29.9592 26.7665 29.9724 26.8455 29.9559 26.9209C29.9394 26.9964 29.8944 27.0625 29.8303 27.1057L25.5703 29.8495L29.5195 27.5695C29.587 27.5303 29.6672 27.519 29.7429 27.538C29.8186 27.557 29.884 27.6047 29.9251 27.6711C29.9662 27.7375 29.9797 27.8173 29.9629 27.8936C29.9461 27.9698 29.9003 28.0365 29.8351 28.0795L25.1191 31.2073L29.5195 28.6663C29.5874 28.6274 29.6678 28.6167 29.7436 28.6363C29.8193 28.6559 29.8844 28.7044 29.9249 28.7713C29.9655 28.8382 29.9783 28.9183 29.9606 28.9945C29.9429 29.0707 29.8961 29.137 29.8303 29.1793L29.5789 29.3395C29.6479 29.3174 29.7227 29.3211 29.7892 29.3498C29.8558 29.3786 29.9097 29.4305 29.9409 29.4959C29.9722 29.5613 29.9787 29.6359 29.9592 29.7057C29.9398 29.7756 29.8957 29.836 29.8351 29.8759L27.9037 31.1551L29.5195 30.2221C29.5859 30.1837 29.6645 30.1722 29.7392 30.19C29.8138 30.2078 29.8788 30.2535 29.9207 30.3178C29.9627 30.382 29.9784 30.4599 29.9647 30.5354C29.951 30.6109 29.9089 30.6783 29.8471 30.7237L26.3299 33.3037L29.5183 31.4659C29.5846 31.4273 29.6631 31.4156 29.7378 31.4331C29.8125 31.4507 29.8776 31.4961 29.9197 31.5602C29.9619 31.6243 29.9779 31.7021 29.9645 31.7776C29.9511 31.8531 29.9093 31.9206 29.8477 31.9663L27.8077 33.4849L29.5165 32.4985C29.5819 32.4619 29.6587 32.4512 29.7316 32.4684C29.8045 32.4857 29.8684 32.5295 29.9106 32.5915C29.9528 32.6534 29.9703 32.7288 29.9596 32.803C29.949 32.8772 29.911 32.9447 29.8531 32.9923L28.5229 34.0543L29.5165 33.4813C29.5804 33.4447 29.6555 33.4329 29.7275 33.4481C29.7996 33.4633 29.8635 33.5044 29.9071 33.5637C29.9508 33.623 29.9711 33.6963 29.9642 33.7696C29.9574 33.8429 29.9238 33.9111 29.8699 33.9613L29.0647 34.7059L29.4775 34.4659C29.5464 34.4267 29.6279 34.4164 29.7044 34.4371C29.7808 34.4579 29.846 34.508 29.8856 34.5767C29.9252 34.6453 29.936 34.7267 29.9158 34.8033C29.8955 34.8799 29.8458 34.9454 29.7775 34.9855L27.0373 36.5659C26.9734 36.601 26.899 36.6117 26.8278 36.5959C26.7567 36.5802 26.6937 36.5391 26.6507 36.4803C26.6076 36.4215 26.5874 36.3491 26.5938 36.2765C26.6003 36.2039 26.6329 36.1361 26.6857 36.0859L27.4921 35.3401L25.3657 36.5659C25.3002 36.603 25.2232 36.6142 25.1499 36.5972C25.0765 36.5803 25.0123 36.5363 24.9698 36.4742C24.9274 36.412 24.9098 36.3362 24.9207 36.2617C24.9316 36.1872 24.97 36.1195 25.0285 36.0721L26.3599 35.0095L23.6653 36.5659C23.599 36.6044 23.5204 36.6162 23.4458 36.5986C23.3711 36.5811 23.306 36.5356 23.2638 36.4715C23.2217 36.4074 23.2056 36.3297 23.219 36.2541C23.2324 36.1786 23.2742 36.1111 23.3359 36.0655L25.3729 34.5487L21.8773 36.5659C21.8108 36.6042 21.7322 36.6157 21.6576 36.5979C21.583 36.5801 21.518 36.5344 21.476 36.4701C21.4341 36.4059 21.4183 36.328 21.432 36.2525C21.4457 36.177 21.4878 36.1097 21.5497 36.0643L25.0651 33.4843L19.7299 36.5659C19.6625 36.6031 19.5834 36.6129 19.509 36.5935C19.4345 36.574 19.3704 36.5266 19.3299 36.4612C19.2893 36.3958 19.2755 36.3173 19.2912 36.242C19.3069 36.1666 19.351 36.1002 19.4143 36.0565L21.3457 34.7779L18.2473 36.5659C18.1795 36.6038 18.0996 36.6139 18.0245 36.5941C17.9494 36.5743 17.8849 36.5262 17.8445 36.4598C17.8042 36.3934 17.7912 36.314 17.8082 36.2382C17.8252 36.1624 17.871 36.0962 17.9359 36.0535L18.0559 35.9785L17.0359 36.5659C16.9685 36.6031 16.8894 36.6129 16.815 36.5935C16.7405 36.574 16.6764 36.5266 16.6359 36.4612C16.5953 36.3958 16.5815 36.3173 16.5972 36.242C16.6129 36.1666 16.657 36.1002 16.7203 36.0565L21.4381 32.9275L15.1351 36.5659C15.0674 36.6031 14.988 36.6128 14.9133 36.5929C14.8387 36.573 14.7746 36.5251 14.7344 36.4591C14.6941 36.3932 14.6809 36.3143 14.6975 36.2388C14.714 36.1633 14.759 36.0972 14.8231 36.0541L19.0831 33.3103L13.4431 36.5659C13.3984 36.5926 13.3475 36.6073 13.2955 36.6085Z" fill="#29CC7A"/>
<path d="M14.5498 5.40791C14.4862 5.40806 14.4243 5.38803 14.3728 5.3507C14.3214 5.31338 14.2832 5.26069 14.2636 5.20022C14.2441 5.13976 14.2442 5.07465 14.264 5.01428C14.2839 4.95391 14.3224 4.9014 14.374 4.86431L14.6212 4.68431L13.693 5.21951C13.6287 5.25609 13.5532 5.26763 13.4809 5.25192C13.4086 5.23621 13.3447 5.19435 13.3014 5.13439C13.2581 5.07443 13.2385 5.00058 13.2463 4.92704C13.2541 4.85349 13.2888 4.78543 13.3438 4.73591L14.995 3.26891L13.102 4.36271C13.0386 4.39973 12.964 4.41226 12.892 4.39795C12.8201 4.38363 12.7559 4.34346 12.7115 4.28502C12.6672 4.22658 12.6458 4.15393 12.6514 4.08079C12.657 4.00766 12.6892 3.93911 12.742 3.88811L13.6546 2.99831L13.0546 3.34571C13.0047 3.3745 12.9477 3.38834 12.8902 3.3856C12.8327 3.38287 12.7773 3.36366 12.7304 3.33027C12.6835 3.29687 12.6473 3.25071 12.6259 3.19728C12.6046 3.14385 12.599 3.0854 12.61 3.02891L12.8104 2.00111C12.7555 1.98295 12.7071 1.94933 12.6709 1.90429C12.6346 1.85926 12.6122 1.80472 12.6063 1.74724C12.6003 1.68976 12.6111 1.63179 12.6373 1.58028C12.6635 1.52878 12.704 1.48594 12.754 1.45691L13.054 1.28351C13.1038 1.25473 13.1608 1.24088 13.2183 1.24362C13.2758 1.24636 13.3313 1.26557 13.3781 1.29896C13.425 1.33235 13.4613 1.37851 13.4826 1.43194C13.504 1.48537 13.5095 1.54382 13.4986 1.60031L13.324 2.49671L15.433 1.27991C15.4963 1.2429 15.571 1.23036 15.6429 1.24468C15.7149 1.25899 15.7791 1.29917 15.8234 1.3576C15.8677 1.41604 15.8891 1.4887 15.8835 1.56183C15.8779 1.63496 15.8457 1.70351 15.793 1.75451L14.878 2.64491L17.2486 1.27691C17.3129 1.23907 17.3891 1.22661 17.4622 1.24195C17.5353 1.25729 17.6 1.29934 17.6438 1.35987C17.6875 1.4204 17.7071 1.49507 17.6987 1.56927C17.6903 1.64347 17.6545 1.71188 17.5984 1.76111L15.946 3.22811L19.3318 1.27391C19.3983 1.2357 19.477 1.22447 19.5516 1.24252C19.6263 1.26058 19.6911 1.30655 19.7329 1.37097C19.7746 1.43539 19.7901 1.51337 19.7761 1.58884C19.762 1.66432 19.7196 1.73155 19.6576 1.77671L19.414 1.95311L20.5942 1.27211C20.6592 1.23471 20.7359 1.22304 20.8091 1.23941C20.8824 1.25578 20.9468 1.29899 20.9897 1.36053C21.0327 1.42207 21.051 1.49746 21.0411 1.57184C21.0311 1.64621 20.9937 1.71417 20.9362 1.76231L19.3234 3.10931L22.51 1.26911C22.5747 1.2317 22.6512 1.21984 22.7242 1.23585C22.7973 1.25186 22.8617 1.29459 22.9049 1.35566C22.9481 1.41674 22.967 1.49174 22.9577 1.56597C22.9485 1.6402 22.9118 1.7083 22.855 1.75691L21.1408 3.22391L24.5326 1.26551C24.5976 1.22811 24.6743 1.21644 24.7475 1.23281C24.8208 1.24918 24.8852 1.29239 24.9281 1.35393C24.9711 1.41547 24.9894 1.49086 24.9795 1.56524C24.9695 1.63961 24.9321 1.70757 24.8746 1.75571L23.2606 3.10151L24.7186 2.26151C24.7792 2.22688 24.85 2.2145 24.9188 2.22649C24.9876 2.23848 25.0501 2.2741 25.0954 2.3272C25.1408 2.3803 25.1662 2.44756 25.1673 2.51739C25.1684 2.58721 25.1451 2.65523 25.1014 2.70971L24.0214 4.03931L24.7156 3.63911C24.7841 3.60325 24.8639 3.59526 24.9382 3.61682C25.0125 3.63837 25.0756 3.68781 25.1144 3.7548C25.1531 3.82179 25.1644 3.90115 25.146 3.97631C25.1276 4.05147 25.0809 4.1166 25.0156 4.15811L22.9228 5.36531C22.8621 5.40029 22.7911 5.41295 22.7221 5.4011C22.6531 5.38925 22.5904 5.35364 22.5449 5.30044C22.4994 5.24723 22.4739 5.17979 22.4729 5.10978C22.4719 5.03977 22.4954 4.97161 22.5394 4.91711L23.6194 3.58751L20.536 5.36531C20.471 5.40194 20.3947 5.41306 20.322 5.39651C20.2493 5.37996 20.1854 5.33692 20.1427 5.27579C20.1 5.21466 20.0816 5.13981 20.091 5.06584C20.1005 4.99188 20.1372 4.92409 20.194 4.87571L21.808 3.52991L18.628 5.36531C18.5637 5.39795 18.4898 5.40633 18.4198 5.38894C18.3498 5.37154 18.2885 5.32953 18.2469 5.27059C18.2054 5.21165 18.1865 5.13972 18.1937 5.06798C18.2008 4.99624 18.2336 4.92947 18.286 4.87991L20.0014 3.41231L16.6108 5.36531C16.5458 5.40194 16.4695 5.41306 16.3968 5.39651C16.3241 5.37996 16.2602 5.33692 16.2175 5.27579C16.1748 5.21466 16.1564 5.13981 16.1658 5.06584C16.1753 4.99188 16.212 4.92409 16.2688 4.87571L17.8816 3.52931L14.7016 5.36531C14.6557 5.39298 14.6033 5.40771 14.5498 5.40791Z" fill="#E1EFFF"/>
<path d="M30.1199 12.9404C30.1199 9.74298 30.1685 6.54078 30.1199 3.34398C30.1366 2.93051 30.0183 2.52283 29.7829 2.18252C29.5474 1.84221 29.2077 1.58776 28.8149 1.45758C28.3608 1.35574 27.8939 1.32317 27.4301 1.36098H25.2821C25.254 1.32661 25.2183 1.2993 25.1777 1.28127C25.1372 1.26324 25.093 1.25499 25.0487 1.25718H13.0487C12.9415 1.26116 12.8355 1.28014 12.7337 1.31358C11.8799 1.32078 11.0255 1.33278 10.1747 1.36098C8.92546 1.40178 7.72546 2.08698 7.65106 3.44178V32.372C7.60795 33.1937 7.61136 34.0172 7.66126 34.8386C7.88386 36.7586 9.99166 36.4898 11.3771 36.4898H25.2239C26.4359 36.4898 28.0319 36.7226 29.1239 36.08C30.2825 35.3978 30.1199 34.1708 30.1199 33.035V12.9404ZM23.7527 4.85718H15.5327C14.9849 4.85718 14.0765 5.01438 13.6415 4.59738C13.2065 4.18038 13.3241 3.50118 13.3241 2.96538V1.79358H24.4493V3.11718C24.4493 3.71898 24.5951 4.78698 23.7527 4.85718ZM29.2511 34.5068C29.2403 35.2064 28.9325 36.0704 28.1297 36.161C27.6992 36.1847 27.2677 36.1847 26.8373 36.161H13.5659C12.4409 36.161 11.2943 36.2252 10.1711 36.161C8.41306 36.0602 8.51986 34.385 8.51986 33.1334V3.20898C8.55466 2.56218 8.90026 1.77918 9.62626 1.68978C9.76793 1.68138 9.90998 1.68138 10.0517 1.68978H12.4463C12.3869 2.52734 12.3921 3.36822 12.4619 4.20498C12.6179 5.25798 13.6175 5.39358 14.4755 5.39358H23.5223C23.5427 5.39358 23.5697 5.38938 23.5943 5.38758C23.6087 5.38758 23.6171 5.39118 23.6327 5.38758C23.8624 5.38633 24.0895 5.33854 24.3003 5.24709C24.511 5.15564 24.7011 5.02242 24.8589 4.85548C25.0168 4.68855 25.1392 4.49136 25.2187 4.27581C25.2982 4.06026 25.3333 3.83084 25.3217 3.60138V1.68978H25.5323C26.9813 1.68978 29.1467 1.35678 29.2523 3.44178C29.3777 5.94858 29.2523 8.49378 29.2523 11.0018V25.4654C29.2511 28.4792 29.2961 31.4948 29.2511 34.5068Z" fill="#262626"/>
<path d="M10.2002 4.69074C10.4147 4.68234 10.6247 4.62595 10.8146 4.52574C10.8572 4.49934 10.9196 4.46574 10.9196 4.40934V3.80934C10.9196 3.76194 10.7834 3.76074 10.7702 3.76074C10.5556 3.76915 10.3457 3.82553 10.1558 3.92574C10.1132 3.95214 10.0508 3.98574 10.0508 4.04214V4.64214C10.0508 4.68954 10.1852 4.69074 10.2002 4.69074Z" fill="#262626"/>
<path d="M27.5614 3.7255C27.4535 3.71677 27.3448 3.72817 27.241 3.7591C27.1353 3.78342 27.0353 3.82783 26.9464 3.8899L26.8864 3.9421C26.8725 3.95433 26.8618 3.96985 26.8554 3.98725C26.8491 4.00464 26.8471 4.02337 26.8498 4.0417V4.6417C26.8498 4.7017 26.9782 4.7215 27.0082 4.7251C27.1162 4.73384 27.2248 4.72244 27.3286 4.6915C27.4344 4.66723 27.5345 4.6226 27.6232 4.5601L27.6832 4.5085C27.6971 4.49628 27.7078 4.48076 27.7142 4.46336C27.7206 4.44596 27.7225 4.42724 27.7198 4.4089V3.8089C27.7198 3.7501 27.5914 3.7291 27.5614 3.7255Z" fill="#262626"/>
<path d="M23.122 33.6006H14.722C14.2204 33.6006 14.059 34.251 14.6488 34.251H23.0488C23.5504 34.251 23.7118 33.6006 23.122 33.6006Z" fill="#262626"/>
<path d="M11.3347 15.6252C11.2666 15.6008 11.1939 15.5913 11.1217 15.5976H10.5217C10.4615 15.5998 10.4022 15.6137 10.3471 15.6384C10.2917 15.6546 10.2401 15.6817 10.1953 15.7182C10.1158 15.7742 10.0617 15.8594 10.0447 15.9552C10.0412 15.9988 10.0493 16.0426 10.0682 16.0821C10.087 16.1216 10.116 16.1555 10.1521 16.1802L10.2367 16.224C10.3049 16.2484 10.3776 16.2578 10.4497 16.2516H11.0497C11.11 16.2493 11.1693 16.2354 11.2243 16.2108C11.2797 16.1945 11.3314 16.1674 11.3761 16.131C11.4557 16.0749 11.5098 15.9898 11.5267 15.894C11.5303 15.8503 11.5222 15.8065 11.5033 15.767C11.4845 15.7275 11.4555 15.6937 11.4193 15.669L11.3347 15.6252Z" fill="#262626"/>
<path d="M27.3187 15.5879H13.5187C13.0087 15.5879 12.8629 16.2623 13.4515 16.2623H27.2515C27.7615 16.2623 27.9073 15.5879 27.3187 15.5879Z" fill="#262626"/>
<path d="M11.2592 19.2948H10.6592C10.5424 19.2962 10.427 19.3198 10.319 19.3644C10.2693 19.3823 10.2226 19.4076 10.1804 19.4394C10.1429 19.4614 10.1101 19.4905 10.0838 19.5252C10.0514 19.5762 10.0238 19.6416 10.0808 19.6902C10.1478 19.7388 10.2299 19.762 10.3124 19.7556H10.9124C11.0292 19.7542 11.1447 19.7306 11.2526 19.686C11.3023 19.6681 11.3491 19.6428 11.3912 19.611C11.4287 19.589 11.4616 19.5599 11.4878 19.5252C11.5202 19.4742 11.5448 19.4088 11.4878 19.3602C11.4216 19.3123 11.3407 19.2891 11.2592 19.2948Z" fill="#262626"/>
<path d="M25.4006 19.7477H27.11C27.4058 19.7477 28.0436 19.3037 27.4616 19.3037H13.6616C13.3658 19.3037 12.728 19.7477 13.31 19.7477H25.4006Z" fill="#262626"/>
<path d="M10.7324 23.3135H10.8068C10.9145 23.3151 11.0218 23.3022 11.126 23.2751C11.2312 23.2504 11.3313 23.2075 11.4218 23.1485L11.4818 23.1005C11.4957 23.0898 11.5066 23.0758 11.5134 23.0597C11.5202 23.0436 11.5228 23.026 11.5208 23.0087C11.498 22.9529 11.4176 22.9367 11.3654 22.9367H10.7654C10.6578 22.935 10.5504 22.9479 10.4462 22.9751C10.3411 22.9998 10.2411 23.0424 10.1504 23.1011L10.0904 23.1497C10.0766 23.1603 10.0657 23.1743 10.0589 23.1904C10.052 23.2065 10.0495 23.2241 10.0514 23.2415C10.0742 23.2973 10.1546 23.3135 10.2068 23.3135H10.7324Z" fill="#262626"/>
<path d="M13.3101 23.3475H27.1101C27.4065 23.3475 28.0425 22.9023 27.4605 22.9023H13.6605C13.3653 22.9023 12.7281 23.3475 13.3101 23.3475Z" fill="#262626"/>
<path d="M10.2048 26.9053H10.8048C10.9122 26.9054 11.0191 26.8913 11.1228 26.8633C11.2275 26.8399 11.3277 26.7994 11.4192 26.7433L11.4792 26.6971C11.493 26.6876 11.504 26.6745 11.511 26.6594C11.5181 26.6442 11.521 26.6274 11.5194 26.6107C11.4966 26.5561 11.415 26.5459 11.3658 26.5459H10.7658C10.6584 26.5457 10.5515 26.5599 10.4478 26.5879C10.3431 26.6113 10.2429 26.6518 10.1514 26.7079L10.0914 26.7541C10.0776 26.7636 10.0666 26.7767 10.0596 26.7918C10.0525 26.807 10.0496 26.8238 10.0512 26.8405C10.074 26.8963 10.1556 26.9053 10.2048 26.9053Z" fill="#262626"/>
<path d="M15.2344 26.4092H13.5244C13.03 26.4092 12.856 27.0416 13.4464 27.0416H27.2464C27.7408 27.0416 27.9148 26.4092 27.3244 26.4092H15.2344Z" fill="#262626"/>
<path d="M11.2605 30.102H10.6605C10.5436 30.1041 10.4282 30.1281 10.3203 30.1728C10.2708 30.1907 10.2241 30.2155 10.1817 30.2466C10.144 30.2678 10.1108 30.2962 10.0839 30.33C10.0521 30.3786 10.0239 30.4416 10.0797 30.489C10.1472 30.5352 10.2286 30.5564 10.3101 30.549H10.9101C11.0269 30.547 11.1423 30.5229 11.2503 30.4782C11.2998 30.4604 11.3464 30.4355 11.3889 30.4044C11.4266 30.3832 11.4598 30.3549 11.4867 30.321C11.5185 30.2724 11.5467 30.2094 11.4909 30.162C11.4234 30.1158 11.3419 30.0946 11.2605 30.102Z" fill="#262626"/>
<path d="M15.366 30.085H13.656C13.338 30.085 12.7302 30.565 13.314 30.565H27.114C27.432 30.565 28.0398 30.085 27.456 30.085H15.366Z" fill="#262626"/>
</g>
<defs>
<clipPath id="clip0_76_12">
<rect width="36" height="36" fill="white" transform="translate(0.885742 0.925781)"/>
</clipPath>
</defs>
</svg>
