<svg width="12" height="13" viewBox="0 0 12 13" fill="none" xmlns="http://www.w3.org/2000/svg">
<path d="M6.9 7.35C6.79167 7.35 6.6895 7.34167 6.5935 7.325C6.4975 7.30833 6.40383 7.28333 6.3125 7.25L4.425 9.125L3.375 8.075L5.25 6.1875C5.21667 6.09583 5.19167 6.00417 5.175 5.9125C5.15833 5.82083 5.15 5.71667 5.15 5.6C5.15 5.125 5.31867 4.71867 5.656 4.381C5.99333 4.04333 6.39967 3.87467 6.875 3.875C7.01667 3.875 7.15833 3.89383 7.3 3.9315C7.44167 3.96917 7.57917 4.02117 7.7125 4.0875L6.5375 5.2625L7.2375 5.9625L8.4125 4.7875C8.47917 4.92083 8.53117 5.05833 8.5685 5.2C8.60583 5.34167 8.62467 5.48333 8.625 5.625C8.625 6.1 8.45617 6.50633 8.1185 6.844C7.78083 7.18167 7.37467 7.35033 6.9 7.35ZM6 11.5C6.69167 11.5 7.34167 11.3687 7.95 11.106C8.55833 10.8433 9.0875 10.4872 9.5375 10.0375C9.9875 9.5875 10.3437 9.05833 10.606 8.45C10.8683 7.84167 10.9997 7.19167 11 6.5C11 5.80833 10.8687 5.15833 10.606 4.55C10.3433 3.94167 9.98717 3.4125 9.5375 2.9625C9.0875 2.5125 8.55833 2.15633 7.95 1.894C7.34167 1.63167 6.69167 1.50033 6 1.5C5.30833 1.5 4.65833 1.63133 4.05 1.894C3.44167 2.15667 2.9125 2.51283 2.4625 2.9625C2.0125 3.4125 1.65617 3.94167 1.3935 4.55C1.13083 5.15833 0.999667 5.80833 1 6.5C1 7.19167 1.13133 7.84167 1.394 8.45C1.65667 9.05833 2.01283 9.5875 2.4625 10.0375C2.9125 10.4875 3.44167 10.8438 4.05 11.1065C4.65833 11.3692 5.30833 11.5003 6 11.5ZM6 10.5C4.88333 10.5 3.9375 10.1125 3.1625 9.3375C2.3875 8.5625 2 7.61667 2 6.5C2 5.38333 2.3875 4.4375 3.1625 3.6625C3.9375 2.8875 4.88333 2.5 6 2.5C7.11667 2.5 8.0625 2.8875 8.8375 3.6625C9.6125 4.4375 10 5.38333 10 6.5C10 7.61667 9.6125 8.5625 8.8375 9.3375C8.0625 10.1125 7.11667 10.5 6 10.5Z" fill="#12201B"/>
</svg>
