<svg width="129" height="129" viewBox="0 0 129 129" fill="none" xmlns="http://www.w3.org/2000/svg">
<path d="M74.2796 34.7969C73.2812 34.7969 72.4876 34.0033 72.4876 33.0049C72.4876 32.0065 73.2812 31.2129 74.2796 31.2129H81.7036C82.702 31.2129 83.4956 32.0065 83.4956 33.0049C83.4956 34.0033 82.702 34.7969 81.7036 34.7969H74.2796ZM39.6684 44.7297C48.0396 44.7297 54.798 51.5137 54.798 59.8593C54.798 68.2305 48.014 75.0145 39.6684 75.0145C31.2972 75.0145 24.5132 68.2305 24.5132 59.8593C24.5132 51.4881 31.2972 44.7297 39.6684 44.7297ZM47.8348 51.6929C43.3292 47.1873 36.0076 47.1873 31.4764 51.6929C26.9708 56.1985 26.9708 63.5201 31.4764 68.0257C35.982 72.5313 43.3036 72.5313 47.8348 68.0257C52.3404 63.5201 52.3404 56.1985 47.8348 51.6929ZM37.8764 33.9777H41.4604C43.4828 33.9777 45.1468 35.6417 45.1468 37.6641L45.1724 39.1233L47.886 40.0449C48.7308 40.4033 49.5756 40.8129 50.3948 41.2737L50.5228 41.2481L51.4956 40.2753C52.9292 38.8417 55.2844 38.8417 56.718 40.2753L59.2524 42.8097C60.686 44.2433 60.686 46.5729 59.2524 48.0321L58.2284 49.0817C58.2284 49.1073 58.2284 49.1329 58.254 49.1585C58.7148 49.9521 59.1244 50.7969 59.4828 51.6673C59.8412 52.5377 60.1484 53.4081 60.3788 54.3041C60.4812 54.6625 62.7852 53.7665 64.4748 55.4561C65.1404 56.1217 65.55 57.0433 65.55 58.0673V61.6257C65.55 63.6737 63.886 65.3121 61.8636 65.3121H60.4812L60.3788 65.3889C59.8924 67.1809 59.1756 68.9473 58.2284 70.5601L58.254 70.6881C59.3548 71.7889 60.3276 72.5313 60.3276 74.2721C60.3276 75.2193 59.9692 76.1665 59.2524 76.8833L56.718 79.4177C55.2844 80.8513 52.9548 80.8513 51.4956 79.4177L50.446 78.3937C50.4204 78.3937 50.3948 78.3937 50.3692 78.4193C48.7564 79.3665 47.0156 80.0833 45.198 80.5697C44.8652 80.6721 45.7356 82.9761 44.046 84.6657C43.3804 85.3313 42.4588 85.7409 41.4348 85.7409H37.8508C35.8284 85.7409 34.1644 84.0769 34.1644 82.0545L34.1388 80.5953L31.4252 79.6481C30.5804 79.2897 29.7356 78.8801 28.9164 78.4193L28.7884 78.4449C27.6876 79.5457 26.9196 80.5185 25.2044 80.5185C24.2572 80.5185 23.31 80.1601 22.5932 79.4433L20.0588 76.9089C18.6252 75.4753 18.6252 73.1201 20.0588 71.6865L21.0828 70.6369C21.0828 70.6113 21.0828 70.5857 21.0572 70.5601C20.1356 68.9473 19.3932 67.1809 18.9068 65.3889C18.8044 65.0305 16.5004 65.9265 14.8108 64.2369C14.1452 63.5713 13.7356 62.6497 13.7356 61.6257V58.0673C13.7356 56.0449 15.3996 54.3809 17.422 54.3809H18.9324C18.958 54.3553 18.958 54.3553 18.958 54.3041C19.4444 52.5121 20.1612 50.7457 21.1084 49.1329L21.0828 49.0049C19.982 47.9041 19.0092 47.1361 19.0092 45.4209C19.0092 44.4737 19.3676 43.5265 20.0844 42.8097L22.6188 40.2753C24.0524 38.8417 26.4076 38.8417 27.8412 40.2753L28.8908 41.2993C28.9164 41.2993 28.942 41.2993 28.9676 41.2737C30.5804 40.3265 32.3212 39.6097 34.1388 39.1233L34.2156 39.0209V37.6385C34.19 35.6417 35.854 33.9777 37.8764 33.9777ZM41.4604 37.5617H37.8764L37.774 37.6641V39.0465C37.774 40.7105 36.6476 42.1697 35.0348 42.6049C33.5244 43.0145 32.0908 43.6033 30.734 44.3713C29.3004 45.2161 27.4572 44.9857 26.2796 43.7825L25.23 42.7841C25.2044 42.7841 25.1788 42.7841 25.1532 42.8097L22.6188 45.3441V45.4977L23.5916 46.4961C24.7692 47.6737 25.0252 49.4913 24.1804 50.9505C23.3868 52.3073 22.798 53.7409 22.414 55.2513C21.9788 56.8641 20.5196 57.9905 18.8556 57.9905L17.3964 58.0161C17.3196 58.0417 17.3708 61.3185 17.3708 61.6513C17.3708 62.0353 19.4444 61.2417 21.1084 62.5217C22.542 63.6225 22.3884 64.9281 23.1308 66.6177C23.5148 67.4881 23.7196 67.9745 24.206 68.7937C25.0508 70.2529 24.8204 72.0705 23.6172 73.2481L22.6188 74.2977C22.6188 74.3233 22.6188 74.3489 22.6444 74.3745L25.1788 76.9089H25.3324L26.3308 75.9105C27.4828 74.7329 29.326 74.4769 30.7852 75.3217C31.4508 75.7057 32.142 76.0641 32.8844 76.3457C33.5756 76.6273 34.318 76.8833 35.086 77.0881C36.6988 77.5233 37.8252 78.9825 37.8252 80.6465L37.8508 82.1057C37.8764 82.1825 41.1532 82.1313 41.5116 82.1313C41.8956 82.1313 41.102 80.0577 42.382 78.3937C42.8684 77.7537 43.534 77.2929 44.3532 77.0625C45.8636 76.6529 47.2972 76.0641 48.654 75.2961C50.1132 74.4513 51.9308 74.7073 53.1084 75.8849L54.158 76.9089C54.1836 76.9089 54.2092 76.8833 54.2348 76.8833L56.7692 74.3489V74.1953L55.7964 73.2225C54.6188 72.0449 54.3628 70.2273 55.2076 68.7681C56.0012 67.4113 56.59 66.0033 56.974 64.4673C57.4092 62.8545 58.8684 61.7281 60.5324 61.7281H61.9148L62.0172 61.6257V58.0673C62.0172 57.6833 59.9436 58.4769 58.2796 57.1969C57.6396 56.7105 57.1788 56.0193 56.9484 55.2257C56.7436 54.4577 56.4876 53.7409 56.206 53.0241L55.182 50.9249C54.3372 49.4657 54.5676 47.6481 55.7708 46.4705L56.7692 45.4209C56.7948 45.3441 54.4652 43.0657 54.2092 42.8353H54.0556C53.0572 43.8337 52.4172 44.6785 50.958 44.8833C50.1644 44.9857 49.3708 44.8321 48.6284 44.4225C47.9628 44.0385 47.2716 43.7057 46.5292 43.3985C45.838 43.1169 45.0956 42.8609 44.3276 42.6561C42.7148 42.2209 41.5884 40.7873 41.5884 39.0977L41.5628 37.6385C41.5116 37.5873 41.486 37.5617 41.4604 37.5617ZM22.03 101.05H22.8748V93.1393C11.9436 86.6625 5.1084 74.8865 5.1084 61.9841C5.1084 41.4785 22.0812 25.0433 42.5868 25.7601V24.7873C42.5868 17.3377 48.6796 11.2705 56.1292 11.2705H110.35C117.8 11.2705 123.867 17.3633 123.867 24.7873V104.48C123.867 111.93 117.774 117.997 110.35 117.997H23.95C19.2908 117.997 15.4764 114.183 15.4764 109.523V107.578C15.4764 103.994 18.4204 101.05 22.03 101.05ZM26.4588 101.05H51.5212V96.4161C51.5212 95.4177 52.3148 94.6241 53.3132 94.6241H73.7676V81.6961C73.7676 80.9025 74.2796 80.1857 75.0988 79.9809L82.0108 78.1377L74.1772 66.3105C73.9468 65.9777 73.8444 65.5681 73.8956 65.1585C75.7132 46.1377 60.9164 29.2929 41.3836 29.2929C23.31 29.3185 8.6924 43.9361 8.6924 61.9841C8.6924 68.0257 10.3308 73.6833 13.198 78.5473C16.1164 83.5137 20.3404 87.6609 25.4092 90.4769C26.0236 90.7585 26.4588 91.3729 26.4588 92.1153V101.05ZM55.1052 101.05H56.4876C63.2972 101.05 67.3932 108.807 63.3996 114.413H110.376C115.828 114.413 120.334 109.933 120.334 104.48V24.7617C120.334 19.3089 115.854 14.8289 110.376 14.8289H56.1292C50.6764 14.8289 46.1708 19.3089 46.1708 24.7617V26.0417C53.4668 27.0145 60.0716 30.1633 65.3196 34.7969C73.614 42.1185 78.0684 52.6657 77.5564 63.7505C77.5308 64.1089 77.5052 64.4929 77.4796 64.8769L86.3372 78.2657C87.0284 79.2897 86.4652 80.6721 85.3132 80.9793L77.326 83.1041V96.4417C77.326 97.4401 76.5324 98.2337 75.534 98.2337H55.0796V101.05H55.1052ZM56.462 104.634H22.03C20.4172 104.634 19.086 105.965 19.086 107.578C19.086 109.677 18.8812 111.315 20.5196 112.954C21.4156 113.85 22.6188 114.387 23.9756 114.387H56.4876C60.7884 114.387 63.0412 109.165 59.9436 106.042C59.0476 105.197 57.8188 104.634 56.462 104.634ZM104.36 81.3633L107.329 86.5857L113.217 87.7889C114.548 88.0705 115.163 89.7345 114.113 90.8097L110.12 95.1873L110.785 101.178C110.939 102.56 109.505 103.559 108.276 102.995L102.798 100.512L97.3196 102.995C96.0652 103.559 94.6316 102.56 94.8108 101.127L95.4764 95.1617L91.4316 90.7329C90.4844 89.7089 91.0476 88.0449 92.3788 87.7889L98.2668 86.5857L101.236 81.3377C101.953 80.1345 103.694 80.1601 104.36 81.3633ZM104.616 89.0689L102.798 85.8689L100.98 89.0689C100.724 89.5041 100.315 89.8369 99.7772 89.9393L96.1676 90.6817L98.574 93.3185C98.958 93.6769 99.1884 94.2401 99.1372 94.8289L98.7276 98.4897L102.081 96.9537C102.542 96.7489 103.054 96.7233 103.54 96.9537L106.894 98.4897L106.484 94.8289C106.433 94.3425 106.587 93.8305 106.945 93.4465L109.428 90.7073L105.87 89.9905C105.358 89.8625 104.897 89.5553 104.616 89.0689ZM104.36 52.5377L107.329 57.7601L113.217 58.9633C114.548 59.2449 115.163 60.9089 114.113 61.9841L110.12 66.3617L110.785 72.3521C110.939 73.7345 109.505 74.7329 108.276 74.1697L102.798 71.6609L97.3196 74.1697C96.0652 74.7329 94.6316 73.7089 94.8108 72.3009L95.4764 66.3361L91.4316 61.8817C90.4844 60.8577 91.0476 59.1937 92.3788 58.9377L98.2668 57.7345L101.236 52.4865C101.928 51.3089 103.694 51.3345 104.36 52.5377ZM104.616 60.2433L102.798 57.0433L100.98 60.2433C100.724 60.6785 100.315 61.0113 99.7772 61.1137L96.1676 61.8561L98.574 64.4673C98.958 64.8257 99.1884 65.3889 99.1372 65.9777L98.7276 69.6385L102.081 68.1025C102.542 67.8977 103.054 67.8721 103.54 68.1025L106.894 69.6385L106.484 65.9777C106.433 65.4913 106.587 64.9793 106.945 64.5697L109.428 61.8561L105.87 61.1137C105.358 61.0369 104.872 60.7297 104.616 60.2433ZM104.334 23.7377L107.304 28.9601L113.192 30.1633C114.523 30.4193 115.137 32.0833 114.088 33.1841L110.094 37.5617L110.76 43.5521C110.913 44.9345 109.48 45.9329 108.251 45.3697L102.772 42.8609L97.294 45.3697C96.0396 45.9329 94.606 44.9345 94.7852 43.5009L95.4508 37.5361L91.3804 33.1073C90.4332 32.0833 90.9964 30.4193 92.3276 30.1633L98.2156 28.9601L101.185 23.7121C101.928 22.4833 103.668 22.5089 104.334 23.7377ZM104.59 31.4177L102.772 28.2177L100.955 31.4177C100.699 31.8529 100.289 32.1857 99.7516 32.2881L96.142 33.0305L98.5484 35.6417C98.9324 36.0257 99.1628 36.5633 99.1116 37.1521L98.702 40.8129L102.056 39.2769C102.516 39.0721 103.028 39.0465 103.515 39.2769L106.868 40.8129L106.459 37.1521C106.408 36.6657 106.561 36.1537 106.92 35.7441L109.403 33.0305L105.844 32.2881C105.332 32.2113 104.872 31.9041 104.59 31.4177Z" fill="url(#paint0_linear_33_41)"/>
<defs>
<linearGradient id="paint0_linear_33_41" x1="22.7325" y1="120.274" x2="123.855" y2="19.152" gradientUnits="userSpaceOnUse">
<stop stop-color="#5EC7AE"/>
<stop offset="1" stop-color="#ABED8A"/>
</linearGradient>
</defs>
</svg>
