<svg width="120" height="121" viewBox="0 0 120 121" fill="none" xmlns="http://www.w3.org/2000/svg">
<path d="M14.998 107.496H15.6543L16.0818 110.918C16.6387 115.38 20.4505 118.746 24.9487 118.746H53.7355C58.2299 118.746 62.0418 115.382 62.6024 110.92L65.5255 87.5405C65.5705 87.173 65.5949 86.8017 65.5949 86.4305C65.5949 84.4467 64.9237 82.6298 63.8268 81.1467C76.3537 80.1492 86.2499 69.6548 86.2499 56.8711V52.7761C88.4268 51.9998 89.9999 49.9373 89.9999 47.4961C89.9999 44.3948 87.4762 41.8711 84.3749 41.8711H82.4999V36.2461C82.4999 36.2086 82.4905 36.1748 82.4887 36.1373C85.2449 35.8336 87.8043 34.8661 89.9999 33.3923V37.2492L95.6249 40.9992V48.3736L103.491 54.9286C103.266 55.538 103.125 56.1867 103.125 56.8711C103.125 59.9723 105.649 62.4961 108.75 62.4961C111.851 62.4961 114.375 59.9723 114.375 56.8711C114.375 53.7698 111.851 51.2461 108.75 51.2461C107.704 51.2461 106.734 51.5517 105.894 52.0523L99.3749 46.6186V38.993L93.7499 35.243V29.9555C94.0649 29.5655 94.3668 29.1642 94.6462 28.748H105.716L108.457 34.2286C107.482 35.2392 106.875 36.608 106.875 38.1211C106.875 41.2223 109.399 43.7461 112.5 43.7461C115.601 43.7461 118.125 41.2223 118.125 38.1211C118.125 35.0198 115.601 32.4961 112.5 32.4961C112.267 32.4961 112.044 32.5373 111.819 32.5655L108.034 24.9961H96.5155C96.9412 23.7998 97.2449 22.5473 97.3893 21.2461H104.284L108.067 13.6767C108.294 13.7048 108.517 13.7461 108.75 13.7461C111.851 13.7461 114.375 11.2223 114.375 8.12109C114.375 5.01984 111.851 2.49609 108.75 2.49609C105.649 2.49609 103.125 5.01984 103.125 8.12109C103.125 9.63422 103.732 11.003 104.707 12.0155L101.966 17.4961H97.3893C96.4537 9.07172 89.2968 2.49609 80.6249 2.49609C71.3193 2.49609 63.7499 10.0673 63.7499 19.3711C63.7499 25.3223 66.8624 30.7467 71.8443 33.7805C71.4749 34.5286 71.2499 35.3573 71.2499 36.2461V43.0205C71.1768 43.0842 71.0905 43.1273 71.023 43.1967L69.2062 45.0117C68.1055 46.1123 67.4999 47.5748 67.4999 49.133C67.4999 51.0867 68.4712 52.898 70.0949 53.9798L72.9318 55.8698C71.5312 61.8605 66.1087 66.2461 59.8668 66.2461H57.7593C56.8799 66.2461 56.0005 66.1598 55.138 65.9873L48.283 64.6205L47.3549 61.7836C51.9468 60.2142 55.3912 56.1698 56.0999 51.2461H56.2499C60.3862 51.2461 63.7499 47.8823 63.7499 43.7461C63.7499 42.2648 63.3055 40.8905 62.5612 39.728C63.3374 36.6548 63.7499 33.4973 63.7499 30.3173C63.748 19.1123 54.6337 9.99609 43.4287 9.99609H36.5099C30.8399 9.99609 25.7174 13.0336 22.9949 17.9648L22.4718 18.2273C17.863 20.5317 14.9999 25.1648 14.9999 30.3192C14.9999 33.4936 15.4124 36.6511 16.1905 39.7261C15.4443 40.8905 14.998 42.2648 14.998 43.7461C14.998 47.8823 18.3618 51.2461 22.498 51.2461H22.648C23.3418 56.0592 26.6474 60.0267 31.0855 61.6711L30.3862 64.463L29.8874 64.4948C14.1787 65.5055 1.87305 78.6286 1.87305 94.3711C1.87305 101.609 7.76242 107.496 14.998 107.496ZM110.625 56.8711C110.625 57.9042 109.785 58.7461 108.75 58.7461C107.715 58.7461 106.875 57.9042 106.875 56.8711C106.875 55.838 107.715 54.9961 108.75 54.9961C109.785 54.9961 110.625 55.838 110.625 56.8711ZM114.375 38.1211C114.375 39.1542 113.535 39.9961 112.5 39.9961C111.465 39.9961 110.625 39.1542 110.625 38.1211C110.625 37.088 111.465 36.2461 112.5 36.2461C113.535 36.2461 114.375 37.088 114.375 38.1211ZM108.75 6.24609C109.785 6.24609 110.625 7.08797 110.625 8.12109C110.625 9.15422 109.785 9.99609 108.75 9.99609C107.715 9.99609 106.875 9.15422 106.875 8.12109C106.875 7.08797 107.715 6.24609 108.75 6.24609ZM53.7337 114.996H24.9487C22.6143 114.996 20.6099 113.429 19.978 111.246H58.7043C58.0724 113.429 56.068 114.996 53.7337 114.996ZM61.8018 87.0736L59.248 107.496H19.4343L16.8824 87.0717C16.8543 86.8598 16.843 86.6442 16.843 86.4305C16.843 83.5711 19.168 81.2442 22.0293 81.2442H54.3749H56.6587C59.518 81.2442 61.8449 83.5711 61.8449 86.4305C61.8412 86.6461 61.8299 86.8598 61.8018 87.0736ZM86.2499 47.4961C86.2499 48.5292 85.4099 49.3711 84.3749 49.3711H80.6249C79.5899 49.3711 78.7499 48.5292 78.7499 47.4961V46.3973C78.7499 46.133 78.7274 45.8742 78.6843 45.6211H84.3749C85.4099 45.6211 86.2499 46.463 86.2499 47.4961ZM74.9999 41.8711V36.2461C74.9999 35.213 75.8399 34.3711 76.8749 34.3711C77.9099 34.3711 78.7499 35.213 78.7499 36.2461V41.8711H74.9999ZM91.8749 24.9961H87.4743C87.7462 23.828 87.9543 22.5811 88.0537 21.2461H93.5999C93.4087 22.5698 93.0224 23.8298 92.4655 24.9961H91.8749ZM89.7918 28.7461C88.3912 30.1167 86.6849 31.1705 84.7855 31.808C85.2974 30.9248 85.8149 29.9067 86.2874 28.7461H89.7918ZM77.6512 24.9961C77.3099 23.768 77.0737 22.5155 76.9612 21.2461H84.2812C84.1593 22.5961 83.9212 23.8523 83.6024 24.9961H77.6512ZM83.6043 13.7461C83.923 14.8898 84.1612 16.1461 84.283 17.4961H76.9687C77.0905 16.1461 77.3287 14.8898 77.6474 13.7461H83.6043ZM79.0912 9.99609C79.6162 8.93859 80.1543 8.06109 80.6249 7.38047C81.0955 8.06109 81.6355 8.93859 82.1587 9.99609H79.0912ZM88.0537 17.4961C87.9543 16.1611 87.7462 14.9142 87.4743 13.7461H92.4655C93.0224 14.9123 93.4105 16.1723 93.5999 17.4961H88.0537ZM86.2893 9.99609C85.8168 8.83547 85.2974 7.81734 84.7874 6.93422C86.6849 7.57172 88.393 8.62547 89.7937 9.99609H86.2893ZM74.9605 9.99609H71.4562C72.8568 8.62547 74.563 7.57172 76.4624 6.93422C75.9524 7.81734 75.433 8.83547 74.9605 9.99609ZM73.7755 13.7461C73.5037 14.9142 73.2955 16.1611 73.1962 17.4961H67.6499C67.8412 16.1723 68.2274 14.9123 68.7843 13.7461H73.7755ZM73.2018 21.2461C73.2974 22.5117 73.498 23.7623 73.7849 24.9961H68.7655C68.2087 23.8223 67.828 22.5605 67.6387 21.2461H73.2018ZM82.1605 28.7461C81.5099 30.0586 80.8349 31.0917 80.3024 31.8173C79.3499 31.0786 78.1705 30.6211 76.8749 30.6211C76.1099 30.6211 75.3805 30.7767 74.7149 31.0542C73.5055 30.443 72.4237 29.6648 71.4824 28.7461H82.1605ZM76.8562 55.2623L77.023 54.0923L72.1724 50.858C71.5968 50.4736 71.2499 49.8286 71.2499 49.133C71.2499 48.578 71.4655 48.0567 71.8574 47.6648L73.6762 45.848C74.1168 45.4036 74.9999 45.7636 74.9999 46.3973V47.4961C74.9999 50.5973 77.5237 53.1211 80.6249 53.1211H82.4999V56.8711C82.4999 65.4305 77.2574 72.7842 69.8174 75.9005C68.9455 73.0448 67.798 70.5286 66.7274 68.528C72.0205 66.1917 75.9993 61.2605 76.8562 55.2623ZM57.7593 69.9961H59.8668C60.9637 69.9961 62.0399 69.8855 63.088 69.683C64.1568 71.5973 65.3605 74.123 66.2437 77.0198C64.8318 77.3255 63.373 77.4961 61.8749 77.4961H56.6568H54.373H40.243L47.593 68.3067L54.4049 69.6661C55.5074 69.8836 56.6343 69.9961 57.7593 69.9961ZM56.248 47.4961V39.9961C58.3162 39.9961 59.998 41.678 59.998 43.7461C59.998 45.8142 58.3162 47.4961 56.248 47.4961ZM18.748 43.7461C18.748 41.678 20.4299 39.9961 22.498 39.9961V47.4961C20.4299 47.4961 18.748 45.8142 18.748 43.7461ZM22.498 34.3711V36.2461C21.3899 36.2461 20.3455 36.503 19.3987 36.9361C18.973 34.7573 18.748 32.5411 18.748 30.3173C18.748 26.5936 20.818 23.2467 24.148 21.5798L25.7699 20.768L26.0493 20.2092C28.0443 16.223 32.053 13.7461 36.5099 13.7461H43.4287C52.5655 13.7461 59.998 21.1805 59.998 30.3173C59.998 32.5448 59.773 34.7592 59.3493 36.9361C58.4005 36.503 57.3562 36.2461 56.248 36.2461V30.6211H54.373C51.2718 30.6211 48.748 28.0973 48.748 24.9961V21.2461H44.998V24.9961C44.998 27.1148 45.7312 29.0498 46.9218 30.6211H46.873C43.7718 30.6211 41.248 28.0973 41.248 24.9961V21.2461H37.498V24.9961C37.498 27.1017 38.2218 29.0273 39.3993 30.593C38.4187 30.5273 37.4737 30.2236 36.6468 29.6742L36.253 29.4117C34.6837 28.3655 33.748 26.6161 33.748 24.7317V21.2461H29.998V24.7317C29.998 24.8817 30.0018 25.0317 30.0093 25.1817C25.7305 26.0498 22.498 29.8392 22.498 34.3711ZM26.248 49.3711V34.3711C26.248 31.5886 28.2787 29.2711 30.9355 28.8248C31.6537 30.3061 32.7599 31.5923 34.1774 32.5355L34.5712 32.7961C36.1143 33.8273 37.9124 34.3711 39.7705 34.3711H52.498V49.3711C52.498 54.5405 48.2924 58.7461 43.123 58.7461H35.623C30.4537 58.7461 26.248 54.5405 26.248 49.3711ZM35.623 62.4961H43.123C43.2955 62.4961 43.4624 62.4773 43.633 62.4698L44.743 65.8636L39.3449 72.6136L33.9168 65.7998L34.7549 62.4492C35.0418 62.4717 35.3305 62.4961 35.623 62.4961ZM30.1293 68.2373L31.0162 68.1811L38.4374 77.4961H22.0274C17.0999 77.4961 13.0912 81.5048 13.0912 86.4323C13.0912 86.8036 13.1155 87.1748 13.1605 87.5405L13.7812 92.4961H9.37305V96.2461H14.2499L15.1874 103.746H14.9999C9.83055 103.746 5.62492 99.5405 5.62492 94.3711C5.62305 80.6011 16.3874 69.1223 30.1293 68.2373ZM39.373 84.9961C36.2718 84.9961 33.748 87.5198 33.748 90.6211C33.748 93.7223 36.2718 96.2461 39.373 96.2461C42.4743 96.2461 44.998 93.7223 44.998 90.6211C44.998 87.5198 42.4743 84.9961 39.373 84.9961ZM39.373 92.4961C38.338 92.4961 37.498 91.6542 37.498 90.6211C37.498 89.588 38.338 88.7461 39.373 88.7461C40.408 88.7461 41.248 89.588 41.248 90.6211C41.248 91.6542 40.408 92.4961 39.373 92.4961ZM29.9999 38.1211C29.9999 37.0861 30.8399 36.2461 31.8749 36.2461C32.9099 36.2461 33.7499 37.0861 33.7499 38.1211C33.7499 39.1561 32.9099 39.9961 31.8749 39.9961C30.838 39.9961 29.9999 39.1561 29.9999 38.1211ZM44.9999 38.1211C44.9999 37.0861 45.8399 36.2461 46.8749 36.2461C47.9099 36.2461 48.7499 37.0861 48.7499 38.1211C48.7499 39.1561 47.9099 39.9961 46.8749 39.9961C45.838 39.9961 44.9999 39.1561 44.9999 38.1211ZM48.748 45.6211V43.7461H29.998V45.6211C29.998 50.7905 34.2037 54.9961 39.373 54.9961C44.5424 54.9961 48.748 50.7905 48.748 45.6211ZM34.0687 47.4961H44.6774C43.903 49.6786 41.818 51.2461 39.373 51.2461C36.928 51.2461 34.843 49.6786 34.0687 47.4961Z" fill="url(#paint0_linear_33_98)"/>
<defs>
<linearGradient id="paint0_linear_33_98" x1="59.9999" y1="118.746" x2="59.9999" y2="2.49609" gradientUnits="userSpaceOnUse">
<stop stop-color="#5EC7AE"/>
<stop offset="1" stop-color="#ABED8A"/>
</linearGradient>
</defs>
</svg>
