<svg width="188" height="51" viewBox="0 0 188 51" fill="none" xmlns="http://www.w3.org/2000/svg">
<g clip-path="url(#clip0_40_3)">
<path d="M115.099 18.6448L110.132 37.1115H104.932L100.966 23.6782L96.899 37.1115H91.699L86.7656 18.6448H91.4656L94.4656 32.9115L98.5656 18.6448H103.532L107.666 32.9115L110.699 18.6448H115.099ZM124.675 18.4115C126.23 18.4115 127.553 18.7782 128.642 19.5115C129.753 20.2448 130.553 21.2337 131.042 22.4782V12.4448H135.708V37.1115H131.042V33.2448C130.553 34.4893 129.753 35.4893 128.642 36.2448C127.553 36.9782 126.23 37.3448 124.675 37.3448C123.119 37.3448 121.719 36.967 120.475 36.2115C119.23 35.4559 118.253 34.367 117.542 32.9448C116.853 31.5004 116.508 29.8115 116.508 27.8782C116.508 25.9448 116.853 24.267 117.542 22.8448C118.253 21.4004 119.23 20.3004 120.475 19.5448C121.719 18.7893 123.119 18.4115 124.675 18.4115ZM126.142 22.5115C124.675 22.5115 123.497 22.9893 122.608 23.9448C121.719 24.9004 121.275 26.2115 121.275 27.8782C121.275 29.5448 121.719 30.8559 122.608 31.8115C123.497 32.7448 124.675 33.2115 126.142 33.2115C127.564 33.2115 128.73 32.7337 129.642 31.7782C130.575 30.8004 131.042 29.5004 131.042 27.8782C131.042 26.2337 130.575 24.9337 129.642 23.9782C128.73 23.0004 127.564 22.5115 126.142 22.5115ZM166.401 18.6448L161.434 37.1115H156.234L152.267 23.6782L148.201 37.1115H143.001L138.067 18.6448H142.767L145.767 32.9115L149.867 18.6448H154.834L158.967 32.9115L162.001 18.6448H166.401ZM176.643 12.6782C178.243 12.6782 179.61 12.9559 180.743 13.5115C181.899 14.067 182.766 14.8337 183.343 15.8115C183.943 16.7893 184.243 17.8782 184.243 19.0782C184.243 20.5893 183.832 21.8337 183.01 22.8115C182.188 23.767 181.099 24.3559 179.743 24.5782V24.7448C183.032 25.7226 184.677 27.6559 184.677 30.5448C184.677 32.567 183.999 34.2115 182.643 35.4782C181.288 36.7226 179.377 37.3448 176.91 37.3448C174.288 37.3448 172.199 36.7004 170.643 35.4115C169.088 34.1004 168.221 32.1337 168.043 29.5115H172.643C172.755 30.7115 173.143 31.667 173.81 32.3782C174.499 33.067 175.466 33.4115 176.71 33.4115C177.777 33.4115 178.61 33.1226 179.21 32.5448C179.81 31.9448 180.11 31.167 180.11 30.2115C180.11 29.0782 179.677 28.2115 178.81 27.6115C177.943 27.0115 176.666 26.7115 174.977 26.7115H174.01V22.8782H174.977C178.088 22.9226 179.643 21.8448 179.643 19.6448C179.643 18.6893 179.366 17.9448 178.81 17.4115C178.255 16.8559 177.499 16.5782 176.543 16.5782C175.543 16.5782 174.721 16.9004 174.077 17.5448C173.432 18.167 173.066 19.0448 172.977 20.1782H168.377C168.51 17.7782 169.288 15.9337 170.71 14.6448C172.132 13.3337 174.11 12.6782 176.643 12.6782Z" fill="url(#paint0_linear_40_3)"/>
<path d="M20.6222 47.6832C22.21 50.4374 26.1865 50.4374 27.7884 47.6832L37.6104 30.6809L47.4325 13.6786C49.0202 10.9245 47.0389 7.48193 43.8493 7.48193H24.1913H4.56132C1.38569 7.48193 -0.60963 10.9245 0.978189 13.6786L10.8002 30.6809L20.6222 47.6832Z" fill="url(#paint1_linear_40_3)"/>
<path d="M39.7179 47.6832C41.3057 50.4374 45.2823 50.4374 46.8841 47.6832L56.7061 30.6809L66.5281 13.6786C68.1159 10.9245 66.1347 7.48193 62.945 7.48193H43.301H23.657C20.4814 7.48193 18.4861 10.9245 20.0739 13.6786L29.8959 30.6809L39.7179 47.6832Z" fill="url(#paint2_linear_40_3)"/>
</g>
<defs>
<linearGradient id="paint0_linear_40_3" x1="136.995" y1="0.0744341" x2="136.995" y2="50.0745" gradientUnits="userSpaceOnUse">
<stop stop-color="#74FDDF"/>
<stop offset="1" stop-color="#0051C9"/>
</linearGradient>
<linearGradient id="paint1_linear_40_3" x1="38.0151" y1="1.14169" x2="7.44551" y2="36.672" gradientUnits="userSpaceOnUse">
<stop stop-color="#C072F7"/>
<stop offset="0.3952" stop-color="#722DC1"/>
<stop offset="0.7666" stop-color="#339EFF"/>
<stop offset="1" stop-color="#78D2FF"/>
</linearGradient>
<linearGradient id="paint2_linear_40_3" x1="57.1153" y1="1.1417" x2="26.5457" y2="36.672" gradientUnits="userSpaceOnUse">
<stop stop-color="#C072F7"/>
<stop offset="0.3952" stop-color="#722DC1"/>
<stop offset="0.7666" stop-color="#339EFF"/>
<stop offset="1" stop-color="#78D2FF"/>
</linearGradient>
<clipPath id="clip0_40_3">
<rect width="187.037" height="50" fill="white" transform="translate(0.420898 0.074707)"/>
</clipPath>
</defs>
</svg>
